<?xml version="1.0" encoding="UTF-8" standalone="no"?>
<!DOCTYPE svg PUBLIC "-//W3C//DTD SVG 1.1//EN"
 "http://www.w3.org/Graphics/SVG/1.1/DTD/svg11.dtd">
<!-- Generated by graphviz version 12.1.0 (20240811.2233)
 -->
<!-- Pages: 1 -->
<svg width="1485pt" height="687pt"
 viewBox="0.00 0.00 1485.40 686.74" xmlns="http://www.w3.org/2000/svg" xmlns:xlink="http://www.w3.org/1999/xlink">
<g id="graph0" class="graph" transform="scale(1 1) rotate(0) translate(4 682.74)">
<polygon fill="white" stroke="none" points="-4,4 -4,-682.74 1481.4,-682.74 1481.4,4 -4,4"/>
<!-- provider_docker -->
<g id="node1" class="node">
<title>provider_docker</title>
<polygon fill="#e3f2fd" stroke="#1976d2" stroke-width="2" points="449.91,-509.02 350.01,-463.12 449.91,-417.22 549.81,-463.12 449.91,-509.02"/>
<text text-anchor="middle" x="449.91" y="-470.32" font-family="Arial" font-size="9.00" fill="#0d47a1">Docker Provider</text>
<text text-anchor="middle" x="449.91" y="-459.82" font-family="Arial" font-size="9.00" fill="#0d47a1">registry.opentofu.org/</text>
<text text-anchor="middle" x="449.91" y="-449.32" font-family="Arial" font-size="9.00" fill="#0d47a1">kreuzwerker/docker</text>
</g>
<!-- docker_network -->
<g id="node7" class="node">
<title>docker_network</title>
<path fill="#e1f5fe" stroke="#0277bd" d="M602.33,-358.02C602.33,-358.02 533.93,-358.02 533.93,-358.02 527.93,-358.02 521.93,-352.02 521.93,-346.02 521.93,-346.02 521.93,-331.62 521.93,-331.62 521.93,-325.62 527.93,-319.62 533.93,-319.62 533.93,-319.62 602.33,-319.62 602.33,-319.62 608.33,-319.62 614.33,-325.62 614.33,-331.62 614.33,-331.62 614.33,-346.02 614.33,-346.02 614.33,-352.02 608.33,-358.02 602.33,-358.02"/>
<text text-anchor="middle" x="568.13" y="-341.32" font-family="Arial" font-size="10.00" fill="#01579b">docker_network</text>
<text text-anchor="middle" x="568.13" y="-329.32" font-family="Arial" font-size="10.00" fill="#01579b">(custom_network)</text>
</g>
<!-- provider_docker&#45;&gt;docker_network -->
<g id="edge7" class="edge">
<title>provider_docker&#45;&gt;docker_network</title>
<path fill="none" stroke="#1976d2" stroke-width="2" stroke-dasharray="5,2" d="M480.97,-430.46C499.5,-410.98 522.81,-386.47 540.66,-367.7"/>
<polygon fill="#1976d2" stroke="#1976d2" stroke-width="2" points="543,-370.32 547.36,-360.66 537.93,-365.49 543,-370.32"/>
<text text-anchor="middle" x="504.44" y="-401.23" font-family="Arial" font-size="8.00">API</text>
</g>
<!-- docker_image -->
<g id="node8" class="node">
<title>docker_image</title>
<path fill="#e8f5e8" stroke="#388e3c" d="M515.28,-270.52C515.28,-270.52 464.13,-270.52 464.13,-270.52 458.13,-270.52 452.13,-264.52 452.13,-258.52 452.13,-258.52 452.13,-244.12 452.13,-244.12 452.13,-238.12 458.13,-232.12 464.13,-232.12 464.13,-232.12 515.28,-232.12 515.28,-232.12 521.28,-232.12 527.28,-238.12 527.28,-244.12 527.28,-244.12 527.28,-258.52 527.28,-258.52 527.28,-264.52 521.28,-270.52 515.28,-270.52"/>
<text text-anchor="middle" x="489.7" y="-253.82" font-family="Arial" font-size="10.00" fill="#1b5e20">docker_image</text>
<text text-anchor="middle" x="489.7" y="-241.82" font-family="Arial" font-size="10.00" fill="#1b5e20">(instance)</text>
</g>
<!-- provider_docker&#45;&gt;docker_image -->
<g id="edge8" class="edge">
<title>provider_docker&#45;&gt;docker_image</title>
<path fill="none" stroke="#1976d2" stroke-width="2" stroke-dasharray="5,2" d="M458.01,-420C465.61,-379.57 476.79,-320.02 483.64,-283.56"/>
<polygon fill="#1976d2" stroke="#1976d2" stroke-width="2" points="487.07,-284.25 485.48,-273.78 480.19,-282.96 487.07,-284.25"/>
<text text-anchor="middle" x="464.45" y="-353.93" font-family="Arial" font-size="8.00">API</text>
</g>
<!-- docker_container -->
<g id="node9" class="node">
<title>docker_container</title>
<path fill="#fff8e1" stroke="#f9a825" stroke-width="2" d="M300.9,-378.51C300.9,-378.51 236.25,-378.51 236.25,-378.51 230.25,-378.51 224.25,-372.51 224.25,-366.51 224.25,-366.51 224.25,-352.11 224.25,-352.11 224.25,-346.11 230.25,-340.11 236.25,-340.11 236.25,-340.11 300.9,-340.11 300.9,-340.11 306.9,-340.11 312.9,-346.11 312.9,-352.11 312.9,-352.11 312.9,-366.51 312.9,-366.51 312.9,-372.51 306.9,-378.51 300.9,-378.51"/>
<text text-anchor="middle" x="268.58" y="-361.81" font-family="Arial" font-size="10.00" fill="#f57f17">docker_container</text>
<text text-anchor="middle" x="268.58" y="-349.81" font-family="Arial" font-size="10.00" fill="#f57f17">(instance)</text>
</g>
<!-- provider_docker&#45;&gt;docker_container -->
<g id="edge9" class="edge">
<title>provider_docker&#45;&gt;docker_container</title>
<path fill="none" stroke="#1976d2" stroke-width="2" stroke-dasharray="5,2" d="M404.62,-437.19C377.15,-421.46 342.18,-401.44 314.58,-385.64"/>
<polygon fill="#1976d2" stroke="#1976d2" stroke-width="2" points="316.67,-382.81 306.25,-380.88 313.19,-388.88 316.67,-382.81"/>
<text text-anchor="middle" x="353.22" y="-403.82" font-family="Arial" font-size="8.00">API</text>
</g>
<!-- root_end -->
<g id="node20" class="node">
<title>root_end</title>
<ellipse fill="#ffcdd2" stroke="#d32f2f" cx="306.52" cy="-555.66" rx="25.56" ry="25.56"/>
<text text-anchor="middle" x="306.52" y="-552.16" font-family="Arial" font-size="10.00">END</text>
</g>
<!-- provider_docker&#45;&gt;root_end -->
<g id="edge21" class="edge">
<title>provider_docker&#45;&gt;root_end</title>
<path fill="none" stroke="#2196f3" stroke-dasharray="5,2" d="M407.66,-490.38C385.23,-504.86 358.14,-522.35 337.64,-535.58"/>
<polygon fill="#2196f3" stroke="#2196f3" points="335.94,-532.51 329.43,-540.88 339.73,-538.39 335.94,-532.51"/>
</g>
<!-- var_aws_access -->
<g id="node2" class="node">
<title>var_aws_access</title>
<polygon fill="#fff3e0" stroke="#f57c00" points="1089.4,-337.64 968.5,-337.64 968.5,-301.64 1095.4,-301.64 1095.4,-331.64 1089.4,-337.64"/>
<polyline fill="none" stroke="#f57c00" points="1089.4,-337.64 1089.4,-331.64"/>
<polyline fill="none" stroke="#f57c00" points="1095.4,-331.64 1089.4,-331.64"/>
<text text-anchor="middle" x="1031.95" y="-316.14" font-family="Arial" font-size="10.00" fill="#e65100">host_aws_access_key_id</text>
</g>
<!-- local_processed -->
<g id="node6" class="node">
<title>local_processed</title>
<ellipse fill="#f3e5f5" stroke="#7b1fa2" cx="793.46" cy="-350.8" rx="75.41" ry="27.15"/>
<text text-anchor="middle" x="793.46" y="-353.3" font-family="Arial" font-size="10.00" fill="#4a148c">processed_instances</text>
<text text-anchor="middle" x="793.46" y="-341.3" font-family="Arial" font-size="10.00" fill="#4a148c">(données traitées)</text>
</g>
<!-- var_aws_access&#45;&gt;local_processed -->
<g id="edge1" class="edge">
<title>var_aws_access&#45;&gt;local_processed</title>
<path fill="none" stroke="#ff9800" stroke-width="2" d="M968.04,-327.99C940.15,-331.63 907.08,-335.95 877.26,-339.85"/>
<polygon fill="#ff9800" stroke="#ff9800" stroke-width="2" points="877.16,-336.33 867.7,-341.1 878.07,-343.27 877.16,-336.33"/>
<text text-anchor="middle" x="912.15" y="-336.07" font-family="Arial" font-size="8.00">config</text>
</g>
<!-- var_aws_region -->
<g id="node3" class="node">
<title>var_aws_region</title>
<polygon fill="#fff3e0" stroke="#f57c00" points="984.16,-180.98 867.76,-180.98 867.76,-144.98 990.16,-144.98 990.16,-174.98 984.16,-180.98"/>
<polyline fill="none" stroke="#f57c00" points="984.16,-180.98 984.16,-174.98"/>
<polyline fill="none" stroke="#f57c00" points="990.16,-174.98 984.16,-174.98"/>
<text text-anchor="middle" x="928.96" y="-159.48" font-family="Arial" font-size="10.00" fill="#e65100">host_aws_default_region</text>
</g>
<!-- var_aws_region&#45;&gt;local_processed -->
<g id="edge2" class="edge">
<title>var_aws_region&#45;&gt;local_processed</title>
<path fill="none" stroke="#ff9800" stroke-width="2" d="M915.72,-181.33C893.64,-211.94 848.88,-273.99 820.08,-313.91"/>
<polygon fill="#ff9800" stroke="#ff9800" stroke-width="2" points="817.37,-311.68 814.36,-321.84 823.05,-315.77 817.37,-311.68"/>
<text text-anchor="middle" x="857.4" y="-249.77" font-family="Arial" font-size="8.00">config</text>
</g>
<!-- var_aws_secret -->
<g id="node4" class="node">
<title>var_aws_secret</title>
<polygon fill="#fff3e0" stroke="#f57c00" points="1045.9,-516 905.5,-516 905.5,-480 1051.9,-480 1051.9,-510 1045.9,-516"/>
<polyline fill="none" stroke="#f57c00" points="1045.9,-516 1045.9,-510"/>
<polyline fill="none" stroke="#f57c00" points="1051.9,-510 1045.9,-510"/>
<text text-anchor="middle" x="978.7" y="-494.5" font-family="Arial" font-size="10.00" fill="#e65100">host_aws_secret_access_key</text>
</g>
<!-- var_aws_secret&#45;&gt;local_processed -->
<g id="edge3" class="edge">
<title>var_aws_secret&#45;&gt;local_processed</title>
<path fill="none" stroke="#ff9800" stroke-width="2" d="M955.61,-479.66C925.47,-455.71 872.18,-413.35 834.95,-383.77"/>
<polygon fill="#ff9800" stroke="#ff9800" stroke-width="2" points="837.28,-381.15 827.27,-377.67 832.92,-386.63 837.28,-381.15"/>
<text text-anchor="middle" x="884.78" y="-433.86" font-family="Arial" font-size="8.00">config</text>
</g>
<!-- var_instances -->
<g id="node5" class="node">
<title>var_instances</title>
<polygon fill="#e8f5e8" stroke="#388e3c" points="798.65,-598.32 728.75,-598.32 728.75,-559.92 804.65,-559.92 804.65,-592.32 798.65,-598.32"/>
<polyline fill="none" stroke="#388e3c" points="798.65,-598.32 798.65,-592.32"/>
<polyline fill="none" stroke="#388e3c" points="804.65,-592.32 798.65,-592.32"/>
<text text-anchor="middle" x="766.7" y="-581.62" font-family="Arial" font-size="10.00" fill="#1b5e20">instances</text>
<text text-anchor="middle" x="766.7" y="-569.62" font-family="Arial" font-size="10.00" fill="#1b5e20">(configuration)</text>
</g>
<!-- var_instances&#45;&gt;local_processed -->
<g id="edge4" class="edge">
<title>var_instances&#45;&gt;local_processed</title>
<path fill="none" stroke="#4caf50" stroke-width="3" d="M768.98,-559.65C773.3,-522.81 782.76,-442.14 788.57,-392.54"/>
<polygon fill="#4caf50" stroke="#4caf50" stroke-width="3" points="792.03,-393.07 789.72,-382.73 785.08,-392.26 792.03,-393.07"/>
<text text-anchor="middle" x="763.4" y="-478.24" font-family="Arial" font-size="8.00">données</text>
</g>
<!-- local_processed&#45;&gt;docker_network -->
<g id="edge5" class="edge">
<title>local_processed&#45;&gt;docker_network</title>
<path fill="none" stroke="#2196f3" stroke-width="2" d="M718.43,-346.81C688.81,-345.23 655.27,-343.45 627.4,-341.97"/>
<polygon fill="#2196f3" stroke="#2196f3" stroke-width="2" points="627.82,-338.49 617.65,-341.45 627.45,-345.48 627.82,-338.49"/>
<text text-anchor="middle" x="668.04" y="-346.54" font-family="Arial" font-size="8.00">init</text>
</g>
<!-- local_processed&#45;&gt;docker_image -->
<g id="edge6" class="edge">
<title>local_processed&#45;&gt;docker_image</title>
<path fill="none" stroke="#2196f3" stroke-width="2" d="M737.04,-332.32C680.37,-313.76 593.89,-285.44 539.64,-267.67"/>
<polygon fill="#2196f3" stroke="#2196f3" stroke-width="2" points="541.05,-264.45 530.46,-264.66 538.87,-271.1 541.05,-264.45"/>
<text text-anchor="middle" x="633.47" y="-302.15" font-family="Arial" font-size="8.00">init</text>
</g>
<!-- docker_network&#45;&gt;docker_container -->
<g id="edge10" class="edge">
<title>docker_network&#45;&gt;docker_container</title>
<path fill="none" stroke="#00bcd4" stroke-width="3" d="M521.66,-342C469.5,-345.56 384.76,-351.36 327.88,-355.25"/>
<polygon fill="#00bcd4" stroke="#00bcd4" stroke-width="3" points="327.96,-351.74 318.22,-355.91 328.44,-358.72 327.96,-351.74"/>
<text text-anchor="middle" x="412.39" y="-360.52" font-family="Arial" font-size="8.00" fill="#006064">réseau</text>
<text text-anchor="middle" x="412.39" y="-350.77" font-family="Arial" font-size="8.00" fill="#006064">prêt</text>
</g>
<!-- docker_image&#45;&gt;docker_container -->
<g id="edge11" class="edge">
<title>docker_image&#45;&gt;docker_container</title>
<path fill="none" stroke="#4caf50" stroke-width="3" d="M451.69,-269.88C416.19,-287.22 362.82,-313.28 322.84,-332.81"/>
<polygon fill="#4caf50" stroke="#4caf50" stroke-width="3" points="321.38,-329.63 313.93,-337.16 324.45,-335.92 321.38,-329.63"/>
<text text-anchor="middle" x="376.39" y="-313.24" font-family="Arial" font-size="8.00" fill="#1b5e20">image</text>
<text text-anchor="middle" x="376.39" y="-303.49" font-family="Arial" font-size="8.00" fill="#1b5e20">dispo</text>
</g>
<!-- docker_container&#45;&gt;root_end -->
<g id="edge20" class="edge">
<title>docker_container&#45;&gt;root_end</title>
<path fill="none" stroke="#f44336" stroke-width="2" d="M272.43,-379.22C278.68,-411.59 291.16,-476.19 299.16,-517.6"/>
<polygon fill="#f44336" stroke="#f44336" stroke-width="2" points="295.68,-518.03 301.02,-527.19 302.56,-516.7 295.68,-518.03"/>
<text text-anchor="middle" x="271.92" y="-450.56" font-family="Arial" font-size="8.00">déployé</text>
</g>
<!-- mod_var_image -->
<g id="node10" class="node">
<title>mod_var_image</title>
<text text-anchor="middle" x="457.38" y="-15.28" font-family="Arial" font-size="8.00">image</text>
</g>
<!-- mod_var_image&#45;&gt;docker_image -->
<g id="edge13" class="edge">
<title>mod_var_image&#45;&gt;docker_image</title>
<path fill="none" stroke="#9e9e9e" stroke-dasharray="1,5" d="M459.86,-35.92C465.35,-75.55 478.58,-171.01 485.43,-220.47"/>
<polygon fill="#9e9e9e" stroke="#9e9e9e" points="481.94,-220.78 486.78,-230.2 488.87,-219.82 481.94,-220.78"/>
</g>
<!-- mod_var_container_name -->
<g id="node11" class="node">
<title>mod_var_container_name</title>
<text text-anchor="middle" x="52.19" y="-235.25" font-family="Arial" font-size="8.00">container_name</text>
</g>
<!-- mod_var_container_name&#45;&gt;docker_container -->
<g id="edge14" class="edge">
<title>mod_var_container_name&#45;&gt;docker_container</title>
<path fill="none" stroke="#9e9e9e" stroke-dasharray="1,5" d="M84.12,-255.88C120.83,-276.46 181.37,-310.41 223.02,-333.76"/>
<polygon fill="#9e9e9e" stroke="#9e9e9e" points="221.16,-336.73 231.6,-338.57 224.58,-330.63 221.16,-336.73"/>
</g>
<!-- mod_var_network_name -->
<g id="node12" class="node">
<title>mod_var_network_name</title>
<text text-anchor="middle" x="668.67" y="-128.63" font-family="Arial" font-size="8.00">network_name</text>
</g>
<!-- mod_var_network_name&#45;&gt;docker_network -->
<g id="edge12" class="edge">
<title>mod_var_network_name&#45;&gt;docker_network</title>
<path fill="none" stroke="#9e9e9e" stroke-dasharray="1,5" d="M660.1,-149.04C642.85,-184.63 603.79,-265.23 582.55,-309.07"/>
<polygon fill="#9e9e9e" stroke="#9e9e9e" points="579.43,-307.49 578.22,-318.01 585.73,-310.54 579.43,-307.49"/>
</g>
<!-- mod_var_ports -->
<g id="node13" class="node">
<title>mod_var_ports</title>
<text text-anchor="middle" x="27" y="-402.29" font-family="Arial" font-size="8.00">ports</text>
</g>
<!-- mod_var_ports&#45;&gt;docker_container -->
<g id="edge15" class="edge">
<title>mod_var_ports&#45;&gt;docker_container</title>
<path fill="none" stroke="#9e9e9e" stroke-dasharray="1,5" d="M53.78,-399.95C91.84,-392.75 162.51,-379.38 212.37,-369.94"/>
<polygon fill="#9e9e9e" stroke="#9e9e9e" points="212.96,-373.39 222.14,-368.1 211.66,-366.52 212.96,-373.39"/>
</g>
<!-- mod_var_env_vars -->
<g id="node14" class="node">
<title>mod_var_env_vars</title>
<text text-anchor="middle" x="197" y="-140.11" font-family="Arial" font-size="8.00">env_vars</text>
</g>
<!-- mod_var_env_vars&#45;&gt;docker_container -->
<g id="edge16" class="edge">
<title>mod_var_env_vars&#45;&gt;docker_container</title>
<path fill="none" stroke="#9e9e9e" stroke-dasharray="1,5" d="M202.86,-160.55C215.01,-197.32 243.12,-282.32 258.34,-328.35"/>
<polygon fill="#9e9e9e" stroke="#9e9e9e" points="254.98,-329.33 261.44,-337.73 261.63,-327.13 254.98,-329.33"/>
</g>
<!-- mod_var_command -->
<g id="node15" class="node">
<title>mod_var_command</title>
<text text-anchor="middle" x="586" y="-144.28" font-family="Arial" font-size="8.00">command</text>
</g>
<!-- mod_var_has_volume -->
<g id="node16" class="node">
<title>mod_var_has_volume</title>
<text text-anchor="middle" x="113.45" y="-551.84" font-family="Arial" font-size="8.00">has_volume</text>
</g>
<!-- mod_var_has_volume&#45;&gt;docker_container -->
<g id="edge17" class="edge">
<title>mod_var_has_volume&#45;&gt;docker_container</title>
<path fill="none" stroke="#9e9e9e" stroke-dasharray="1,5" d="M127.49,-536.89C154.27,-503.19 212.87,-429.43 245.49,-388.37"/>
<polygon fill="#9e9e9e" stroke="#9e9e9e" points="248.2,-390.59 251.68,-380.58 242.72,-386.24 248.2,-390.59"/>
</g>
<!-- mod_var_volume_name -->
<g id="node17" class="node">
<title>mod_var_volume_name</title>
<text text-anchor="middle" x="376.32" y="-144.28" font-family="Arial" font-size="8.00">volume_name</text>
</g>
<!-- mod_var_access_docker -->
<g id="node18" class="node">
<title>mod_var_access_docker</title>
<text text-anchor="middle" x="684.08" y="-488.27" font-family="Arial" font-size="8.00">access_to_docker</text>
</g>
<!-- root_start -->
<g id="node19" class="node">
<title>root_start</title>
<ellipse fill="#c8e6c9" stroke="#388e3c" cx="591.65" cy="-646.29" rx="32.46" ry="32.46"/>
<text text-anchor="middle" x="591.65" y="-642.79" font-family="Arial" font-size="10.00">START</text>
</g>
<!-- root_start&#45;&gt;provider_docker -->
<g id="edge19" class="edge">
<title>root_start&#45;&gt;provider_docker</title>
<path fill="none" stroke="#2196f3" stroke-width="2" d="M571.65,-620.43C549,-591.17 511.72,-542.99 484.37,-507.65"/>
<polygon fill="#2196f3" stroke="#2196f3" stroke-width="2" points="487.33,-505.75 478.44,-499.98 481.79,-510.03 487.33,-505.75"/>
</g>
<!-- root_start&#45;&gt;var_instances -->
<g id="edge18" class="edge">
<title>root_start&#45;&gt;var_instances</title>
<path fill="none" stroke="#4caf50" stroke-width="2" d="M622.14,-634.59C648.06,-624.64 685.78,-610.17 716.2,-598.5"/>
<polygon fill="#4caf50" stroke="#4caf50" stroke-width="2" points="717.4,-601.79 725.48,-594.94 714.89,-595.25 717.4,-601.79"/>
</g>
<!-- legend_provider -->
<g id="node21" class="node">
<title>legend_provider</title>
<polygon fill="#e3f2fd" stroke="black" points="1427,-95.8 1376.6,-69.4 1427,-43 1477.4,-69.4 1427,-95.8"/>
<text text-anchor="middle" x="1427" y="-65.9" font-family="Arial" font-size="10.00">Provider</text>
</g>
<!-- legend_resource -->
<g id="node22" class="node">
<title>legend_resource</title>
<path fill="#fff8e1" stroke="black" d="M1255.95,-87.4C1255.95,-87.4 1218.3,-87.4 1218.3,-87.4 1212.3,-87.4 1206.3,-81.4 1206.3,-75.4 1206.3,-75.4 1206.3,-63.4 1206.3,-63.4 1206.3,-57.4 1212.3,-51.4 1218.3,-51.4 1218.3,-51.4 1255.95,-51.4 1255.95,-51.4 1261.95,-51.4 1267.95,-57.4 1267.95,-63.4 1267.95,-63.4 1267.95,-75.4 1267.95,-75.4 1267.95,-81.4 1261.95,-87.4 1255.95,-87.4"/>
<text text-anchor="middle" x="1237.13" y="-65.9" font-family="Arial" font-size="10.00">Ressource</text>
</g>
<!-- legend_provider&#45;&gt;legend_resource -->
<!-- legend_variable -->
<g id="node23" class="node">
<title>legend_variable</title>
<polygon fill="#fff3e0" stroke="black" points="1056.76,-87.4 1008.76,-87.4 1008.76,-51.4 1062.76,-51.4 1062.76,-81.4 1056.76,-87.4"/>
<polyline fill="none" stroke="black" points="1056.76,-87.4 1056.76,-81.4"/>
<polyline fill="none" stroke="black" points="1062.76,-81.4 1056.76,-81.4"/>
<text text-anchor="middle" x="1035.76" y="-65.9" font-family="Arial" font-size="10.00">Variable</text>
</g>
<!-- legend_resource&#45;&gt;legend_variable -->
<!-- legend_data -->
<g id="node24" class="node">
<title>legend_data</title>
<ellipse fill="#f3e5f5" stroke="black" cx="854.76" cy="-69.4" rx="37.76" ry="18.67"/>
<text text-anchor="middle" x="854.76" y="-65.9" font-family="Arial" font-size="10.00">Données</text>
</g>
<!-- legend_variable&#45;&gt;legend_data -->
</g>
</svg>
