<?xml version="1.0" encoding="UTF-8" standalone="no"?>
<!DOCTYPE svg PUBLIC "-//W3C//DTD SVG 1.1//EN"
 "http://www.w3.org/Graphics/SVG/1.1/DTD/svg11.dtd">
<!-- Generated by graphviz version 12.1.0 (20240811.2233)
 -->
<!-- Pages: 1 -->
<svg width="1581pt" height="704pt"
 viewBox="0.00 0.00 1580.98 704.00" xmlns="http://www.w3.org/2000/svg" xmlns:xlink="http://www.w3.org/1999/xlink">
<g id="graph0" class="graph" transform="scale(1 1) rotate(0) translate(4 700)">
<polygon fill="white" stroke="none" points="-4,4 -4,-700 1576.98,-700 1576.98,4 -4,4"/>
<!-- provider_docker -->
<g id="node1" class="node">
<title>provider_docker</title>
<polygon fill="#e3f2fd" stroke="#1976d2" stroke-width="2" points="457.11,-516.59 357.21,-470.69 457.11,-424.79 557.01,-470.69 457.11,-516.59"/>
<text text-anchor="middle" x="457.11" y="-477.89" font-family="Arial" font-size="9.00" fill="#0d47a1">Docker Provider</text>
<text text-anchor="middle" x="457.11" y="-467.39" font-family="Arial" font-size="9.00" fill="#0d47a1">registry.opentofu.org/</text>
<text text-anchor="middle" x="457.11" y="-456.89" font-family="Arial" font-size="9.00" fill="#0d47a1">kreuzwerker/docker</text>
</g>
<!-- docker_network -->
<g id="node7" class="node">
<title>docker_network</title>
<path fill="#e1f5fe" stroke="#0277bd" d="M611.54,-363.47C611.54,-363.47 543.14,-363.47 543.14,-363.47 537.14,-363.47 531.14,-357.47 531.14,-351.47 531.14,-351.47 531.14,-337.07 531.14,-337.07 531.14,-331.07 537.14,-325.07 543.14,-325.07 543.14,-325.07 611.54,-325.07 611.54,-325.07 617.54,-325.07 623.54,-331.07 623.54,-337.07 623.54,-337.07 623.54,-351.47 623.54,-351.47 623.54,-357.47 617.54,-363.47 611.54,-363.47"/>
<text text-anchor="middle" x="577.34" y="-346.77" font-family="Arial" font-size="10.00" fill="#01579b">docker_network</text>
<text text-anchor="middle" x="577.34" y="-334.77" font-family="Arial" font-size="10.00" fill="#01579b">(custom_network)</text>
</g>
<!-- provider_docker&#45;&gt;docker_network -->
<g id="edge7" class="edge">
<title>provider_docker&#45;&gt;docker_network</title>
<path fill="none" stroke="#1976d2" stroke-width="2" stroke-dasharray="5,2" d="M488.07,-438.13C507.24,-417.98 531.62,-392.35 550.06,-372.96"/>
<polygon fill="#1976d2" stroke="#1976d2" stroke-width="2" points="552.4,-375.58 556.76,-365.92 547.33,-370.75 552.4,-375.58"/>
<text text-anchor="middle" x="512.69" y="-407.7" font-family="Arial" font-size="8.00">API</text>
</g>
<!-- docker_image -->
<g id="node8" class="node">
<title>docker_image</title>
<path fill="#e8f5e8" stroke="#388e3c" d="M523.15,-274.49C523.15,-274.49 472,-274.49 472,-274.49 466,-274.49 460,-268.49 460,-262.49 460,-262.49 460,-248.09 460,-248.09 460,-242.09 466,-236.09 472,-236.09 472,-236.09 523.15,-236.09 523.15,-236.09 529.15,-236.09 535.15,-242.09 535.15,-248.09 535.15,-248.09 535.15,-262.49 535.15,-262.49 535.15,-268.49 529.15,-274.49 523.15,-274.49"/>
<text text-anchor="middle" x="497.57" y="-257.79" font-family="Arial" font-size="10.00" fill="#1b5e20">docker_image</text>
<text text-anchor="middle" x="497.57" y="-245.79" font-family="Arial" font-size="10.00" fill="#1b5e20">(instance)</text>
</g>
<!-- provider_docker&#45;&gt;docker_image -->
<g id="edge8" class="edge">
<title>provider_docker&#45;&gt;docker_image</title>
<path fill="none" stroke="#1976d2" stroke-width="2" stroke-dasharray="5,2" d="M465.2,-427.62C472.96,-386.28 484.51,-324.8 491.52,-287.53"/>
<polygon fill="#1976d2" stroke="#1976d2" stroke-width="2" points="494.91,-288.43 493.32,-277.96 488.03,-287.14 494.91,-288.43"/>
<text text-anchor="middle" x="471.98" y="-359.73" font-family="Arial" font-size="8.00">API</text>
</g>
<!-- docker_container -->
<g id="node9" class="node">
<title>docker_container</title>
<path fill="#fff8e1" stroke="#f9a825" stroke-width="2" d="M305.02,-384.32C305.02,-384.32 240.37,-384.32 240.37,-384.32 234.37,-384.32 228.37,-378.32 228.37,-372.32 228.37,-372.32 228.37,-357.92 228.37,-357.92 228.37,-351.92 234.37,-345.92 240.37,-345.92 240.37,-345.92 305.02,-345.92 305.02,-345.92 311.02,-345.92 317.02,-351.92 317.02,-357.92 317.02,-357.92 317.02,-372.32 317.02,-372.32 317.02,-378.32 311.02,-384.32 305.02,-384.32"/>
<text text-anchor="middle" x="272.69" y="-367.62" font-family="Arial" font-size="10.00" fill="#f57f17">docker_container</text>
<text text-anchor="middle" x="272.69" y="-355.62" font-family="Arial" font-size="10.00" fill="#f57f17">(instance)</text>
</g>
<!-- provider_docker&#45;&gt;docker_container -->
<g id="edge9" class="edge">
<title>provider_docker&#45;&gt;docker_container</title>
<path fill="none" stroke="#1976d2" stroke-width="2" stroke-dasharray="5,2" d="M411.99,-444.86C383.78,-428.71 347.53,-407.96 319.09,-391.68"/>
<polygon fill="#1976d2" stroke="#1976d2" stroke-width="2" points="320.86,-388.66 310.44,-386.73 317.38,-394.73 320.86,-388.66"/>
<text text-anchor="middle" x="359.16" y="-410.67" font-family="Arial" font-size="8.00">API</text>
</g>
<!-- root_end -->
<g id="node20" class="node">
<title>root_end</title>
<ellipse fill="#ffcdd2" stroke="#d32f2f" cx="311.27" cy="-564.81" rx="25.56" ry="25.56"/>
<text text-anchor="middle" x="311.27" y="-561.31" font-family="Arial" font-size="10.00">END</text>
</g>
<!-- provider_docker&#45;&gt;root_end -->
<g id="edge21" class="edge">
<title>provider_docker&#45;&gt;root_end</title>
<path fill="none" stroke="#2196f3" stroke-dasharray="5,2" d="M414.93,-497.91C391.83,-512.82 363.71,-530.97 342.58,-544.61"/>
<polygon fill="#2196f3" stroke="#2196f3" points="340.9,-541.53 334.39,-549.89 344.69,-547.41 340.9,-541.53"/>
</g>
<!-- var_aws_access -->
<g id="node2" class="node">
<title>var_aws_access</title>
<polygon fill="#fff3e0" stroke="#f57c00" points="1106.51,-342.77 985.61,-342.77 985.61,-306.77 1112.51,-306.77 1112.51,-336.77 1106.51,-342.77"/>
<polyline fill="none" stroke="#f57c00" points="1106.51,-342.77 1106.51,-336.77"/>
<polyline fill="none" stroke="#f57c00" points="1112.51,-336.77 1106.51,-336.77"/>
<text text-anchor="middle" x="1049.06" y="-321.27" font-family="Arial" font-size="10.00" fill="#e65100">host_aws_access_key_id</text>
</g>
<!-- local_processed -->
<g id="node6" class="node">
<title>local_processed</title>
<ellipse fill="#f3e5f5" stroke="#7b1fa2" cx="806.51" cy="-356.46" rx="75.41" ry="27.15"/>
<text text-anchor="middle" x="806.51" y="-358.96" font-family="Arial" font-size="10.00" fill="#4a148c">processed_instances</text>
<text text-anchor="middle" x="806.51" y="-346.96" font-family="Arial" font-size="10.00" fill="#4a148c">(données traitées)</text>
</g>
<!-- var_aws_access&#45;&gt;local_processed -->
<g id="edge1" class="edge">
<title>var_aws_access&#45;&gt;local_processed</title>
<path fill="none" stroke="#ff9800" stroke-width="2" d="M985.33,-333.1C956.34,-336.88 921.64,-341.42 890.55,-345.48"/>
<polygon fill="#ff9800" stroke="#ff9800" stroke-width="2" points="890.39,-341.97 880.93,-346.74 891.3,-348.91 890.39,-341.97"/>
<text text-anchor="middle" x="927.44" y="-341.44" font-family="Arial" font-size="8.00">config</text>
</g>
<!-- var_aws_region -->
<g id="node3" class="node">
<title>var_aws_region</title>
<polygon fill="#fff3e0" stroke="#f57c00" points="999.51,-183.45 883.11,-183.45 883.11,-147.45 1005.51,-147.45 1005.51,-177.45 999.51,-183.45"/>
<polyline fill="none" stroke="#f57c00" points="999.51,-183.45 999.51,-177.45"/>
<polyline fill="none" stroke="#f57c00" points="1005.51,-177.45 999.51,-177.45"/>
<text text-anchor="middle" x="944.31" y="-161.95" font-family="Arial" font-size="10.00" fill="#e65100">host_aws_default_region</text>
</g>
<!-- var_aws_region&#45;&gt;local_processed -->
<g id="edge2" class="edge">
<title>var_aws_region&#45;&gt;local_processed</title>
<path fill="none" stroke="#ff9800" stroke-width="2" d="M931.09,-183.76C908.58,-214.97 862.39,-279 833.02,-319.72"/>
<polygon fill="#ff9800" stroke="#ff9800" stroke-width="2" points="830.35,-317.42 827.34,-327.58 836.03,-321.52 830.35,-317.42"/>
<text text-anchor="middle" x="871.55" y="-253.89" font-family="Arial" font-size="8.00">config</text>
</g>
<!-- var_aws_secret -->
<g id="node4" class="node">
<title>var_aws_secret</title>
<polygon fill="#fff3e0" stroke="#f57c00" points="1062.09,-524.17 921.69,-524.17 921.69,-488.17 1068.09,-488.17 1068.09,-518.17 1062.09,-524.17"/>
<polyline fill="none" stroke="#f57c00" points="1062.09,-524.17 1062.09,-518.17"/>
<polyline fill="none" stroke="#f57c00" points="1068.09,-518.17 1062.09,-518.17"/>
<text text-anchor="middle" x="994.89" y="-502.67" font-family="Arial" font-size="10.00" fill="#e65100">host_aws_secret_access_key</text>
</g>
<!-- var_aws_secret&#45;&gt;local_processed -->
<g id="edge3" class="edge">
<title>var_aws_secret&#45;&gt;local_processed</title>
<path fill="none" stroke="#ff9800" stroke-width="2" d="M971.79,-487.81C940.95,-463.3 885.78,-419.46 847.72,-389.22"/>
<polygon fill="#ff9800" stroke="#ff9800" stroke-width="2" points="850.33,-386.82 840.33,-383.34 845.98,-392.3 850.33,-386.82"/>
<text text-anchor="middle" x="899.26" y="-440.67" font-family="Arial" font-size="8.00">config</text>
</g>
<!-- var_instances -->
<g id="node5" class="node">
<title>var_instances</title>
<polygon fill="#e8f5e8" stroke="#388e3c" points="811.23,-607.87 741.33,-607.87 741.33,-569.47 817.23,-569.47 817.23,-601.87 811.23,-607.87"/>
<polyline fill="none" stroke="#388e3c" points="811.23,-607.87 811.23,-601.87"/>
<polyline fill="none" stroke="#388e3c" points="817.23,-601.87 811.23,-601.87"/>
<text text-anchor="middle" x="779.28" y="-591.17" font-family="Arial" font-size="10.00" fill="#1b5e20">instances</text>
<text text-anchor="middle" x="779.28" y="-579.17" font-family="Arial" font-size="10.00" fill="#1b5e20">(configuration)</text>
</g>
<!-- var_instances&#45;&gt;local_processed -->
<g id="edge4" class="edge">
<title>var_instances&#45;&gt;local_processed</title>
<path fill="none" stroke="#4caf50" stroke-width="3" d="M781.56,-569.27C785.96,-531.75 795.72,-448.5 801.64,-397.96"/>
<polygon fill="#4caf50" stroke="#4caf50" stroke-width="3" points="805.09,-398.57 802.78,-388.23 798.14,-397.75 805.09,-398.57"/>
<text text-anchor="middle" x="776.22" y="-485.76" font-family="Arial" font-size="8.00">données</text>
</g>
<!-- local_processed&#45;&gt;docker_network -->
<g id="edge5" class="edge">
<title>local_processed&#45;&gt;docker_network</title>
<path fill="none" stroke="#2196f3" stroke-width="2" d="M731.47,-352.47C700.68,-350.83 665.55,-348.97 636.61,-347.43"/>
<polygon fill="#2196f3" stroke="#2196f3" stroke-width="2" points="636.98,-343.94 626.81,-346.91 636.61,-350.93 636.98,-343.94"/>
<text text-anchor="middle" x="679.16" y="-352.1" font-family="Arial" font-size="8.00">init</text>
</g>
<!-- local_processed&#45;&gt;docker_image -->
<g id="edge6" class="edge">
<title>local_processed&#45;&gt;docker_image</title>
<path fill="none" stroke="#2196f3" stroke-width="2" d="M750.2,-338.02C692.4,-319.09 603.28,-289.91 547.8,-271.74"/>
<polygon fill="#2196f3" stroke="#2196f3" stroke-width="2" points="548.95,-268.43 538.36,-268.64 546.77,-275.08 548.95,-268.43"/>
<text text-anchor="middle" x="644.13" y="-307.03" font-family="Arial" font-size="8.00">init</text>
</g>
<!-- docker_network&#45;&gt;docker_container -->
<g id="edge10" class="edge">
<title>docker_network&#45;&gt;docker_container</title>
<path fill="none" stroke="#00bcd4" stroke-width="3" d="M530.74,-347.46C477.53,-351.1 390.37,-357.07 332.27,-361.04"/>
<polygon fill="#00bcd4" stroke="#00bcd4" stroke-width="3" points="332.06,-357.55 322.33,-361.72 332.54,-364.53 332.06,-357.55"/>
<text text-anchor="middle" x="419.13" y="-366.15" font-family="Arial" font-size="8.00" fill="#006064">réseau</text>
<text text-anchor="middle" x="419.13" y="-356.4" font-family="Arial" font-size="8.00" fill="#006064">prêt</text>
</g>
<!-- docker_image&#45;&gt;docker_container -->
<g id="edge11" class="edge">
<title>docker_image&#45;&gt;docker_container</title>
<path fill="none" stroke="#4caf50" stroke-width="3" d="M459.68,-273.79C423.28,-291.57 367.9,-318.62 326.84,-338.67"/>
<polygon fill="#4caf50" stroke="#4caf50" stroke-width="3" points="325.32,-335.52 317.87,-343.05 328.39,-341.81 325.32,-335.52"/>
<text text-anchor="middle" x="382.39" y="-318.13" font-family="Arial" font-size="8.00" fill="#1b5e20">image</text>
<text text-anchor="middle" x="382.39" y="-308.38" font-family="Arial" font-size="8.00" fill="#1b5e20">dispo</text>
</g>
<!-- docker_container&#45;&gt;root_end -->
<g id="edge20" class="edge">
<title>docker_container&#45;&gt;root_end</title>
<path fill="none" stroke="#f44336" stroke-width="2" d="M276.53,-385C282.91,-418 295.79,-484.66 303.95,-526.9"/>
<polygon fill="#f44336" stroke="#f44336" stroke-width="2" points="300.46,-527.29 305.79,-536.44 307.33,-525.96 300.46,-527.29"/>
<text text-anchor="middle" x="276.36" y="-458.1" font-family="Arial" font-size="8.00">déployé</text>
</g>
<!-- mod_var_image -->
<g id="node10" class="node">
<title>mod_var_image</title>
<polygon fill="#e8f5e8" stroke="#388e3c" points="485.7,-36 437.7,-36 437.7,0 491.7,0 491.7,-30 485.7,-36"/>
<polyline fill="none" stroke="#388e3c" points="485.7,-36 485.7,-30"/>
<polyline fill="none" stroke="#388e3c" points="491.7,-30 485.7,-30"/>
<text text-anchor="middle" x="464.7" y="-15.28" font-family="Arial" font-size="8.00">var.image</text>
</g>
<!-- mod_var_image&#45;&gt;docker_image -->
<g id="edge13" class="edge">
<title>mod_var_image&#45;&gt;docker_image</title>
<path fill="none" stroke="#9e9e9e" stroke-dasharray="1,5" d="M467.23,-36.23C472.83,-76.63 486.33,-174.1 493.28,-224.28"/>
<polygon fill="#9e9e9e" stroke="#9e9e9e" points="489.81,-224.75 494.65,-234.18 496.75,-223.79 489.81,-224.75"/>
</g>
<!-- mod_var_container_name -->
<g id="node11" class="node">
<title>mod_var_container_name</title>
<polygon fill="#e8f5e8" stroke="#388e3c" points="89.07,-259.72 10.17,-259.72 10.17,-223.72 95.07,-223.72 95.07,-253.72 89.07,-259.72"/>
<polyline fill="none" stroke="#388e3c" points="89.07,-259.72 89.07,-253.72"/>
<polyline fill="none" stroke="#388e3c" points="95.07,-253.72 89.07,-253.72"/>
<text text-anchor="middle" x="52.62" y="-238.99" font-family="Arial" font-size="8.00">var.container_name</text>
</g>
<!-- mod_var_container_name&#45;&gt;docker_container -->
<g id="edge14" class="edge">
<title>mod_var_container_name&#45;&gt;docker_container</title>
<path fill="none" stroke="#9e9e9e" stroke-dasharray="1,5" d="M85.57,-260.19C123.12,-281.25 184.74,-315.8 226.94,-339.46"/>
<polygon fill="#9e9e9e" stroke="#9e9e9e" points="225.2,-342.5 235.64,-344.34 228.63,-336.4 225.2,-342.5"/>
</g>
<!-- mod_var_network_name -->
<g id="node12" class="node">
<title>mod_var_network_name</title>
<polygon fill="#e8f5e8" stroke="#388e3c" points="713.79,-151.28 639.39,-151.28 639.39,-115.28 719.79,-115.28 719.79,-145.28 713.79,-151.28"/>
<polyline fill="none" stroke="#388e3c" points="713.79,-151.28 713.79,-145.28"/>
<polyline fill="none" stroke="#388e3c" points="719.79,-145.28 713.79,-145.28"/>
<text text-anchor="middle" x="679.59" y="-130.55" font-family="Arial" font-size="8.00">var.network_name</text>
</g>
<!-- mod_var_network_name&#45;&gt;docker_network -->
<g id="edge12" class="edge">
<title>mod_var_network_name&#45;&gt;docker_network</title>
<path fill="none" stroke="#9e9e9e" stroke-dasharray="1,5" d="M670.7,-151.64C653.01,-188.13 613.29,-270.09 591.8,-314.43"/>
<polygon fill="#9e9e9e" stroke="#9e9e9e" points="588.75,-312.7 587.54,-323.23 595.05,-315.75 588.75,-312.7"/>
</g>
<!-- mod_var_ports -->
<g id="node13" class="node">
<title>mod_var_ports</title>
<polygon fill="#e8f5e8" stroke="#388e3c" points="48,-429.6 0,-429.6 0,-393.6 54,-393.6 54,-423.6 48,-429.6"/>
<polyline fill="none" stroke="#388e3c" points="48,-429.6 48,-423.6"/>
<polyline fill="none" stroke="#388e3c" points="54,-423.6 48,-423.6"/>
<text text-anchor="middle" x="27" y="-408.87" font-family="Arial" font-size="8.00">var.ports</text>
</g>
<!-- mod_var_ports&#45;&gt;docker_container -->
<g id="edge15" class="edge">
<title>mod_var_ports&#45;&gt;docker_container</title>
<path fill="none" stroke="#9e9e9e" stroke-dasharray="1,5" d="M54.23,-406.45C93.14,-399.09 165.55,-385.39 216.3,-375.79"/>
<polygon fill="#9e9e9e" stroke="#9e9e9e" points="216.76,-379.26 225.94,-373.96 215.46,-372.38 216.76,-379.26"/>
</g>
<!-- mod_var_env_vars -->
<g id="node14" class="node">
<title>mod_var_env_vars</title>
<polygon fill="#e8f5e8" stroke="#388e3c" points="223.59,-162.96 170.19,-162.96 170.19,-126.96 229.59,-126.96 229.59,-156.96 223.59,-162.96"/>
<polyline fill="none" stroke="#388e3c" points="223.59,-162.96 223.59,-156.96"/>
<polyline fill="none" stroke="#388e3c" points="229.59,-156.96 223.59,-156.96"/>
<text text-anchor="middle" x="199.89" y="-142.23" font-family="Arial" font-size="8.00">var.env_vars</text>
</g>
<!-- mod_var_env_vars&#45;&gt;docker_container -->
<g id="edge16" class="edge">
<title>mod_var_env_vars&#45;&gt;docker_container</title>
<path fill="none" stroke="#9e9e9e" stroke-dasharray="1,5" d="M205.97,-163.35C218.45,-201.08 247.05,-287.58 262.44,-334.12"/>
<polygon fill="#9e9e9e" stroke="#9e9e9e" points="259.11,-335.21 265.58,-343.61 265.76,-333.01 259.11,-335.21"/>
</g>
<!-- mod_var_command -->
<g id="node15" class="node">
<title>mod_var_command</title>
<polygon fill="#e8f5e8" stroke="#388e3c" points="496.4,-696 440,-696 440,-660 502.4,-660 502.4,-690 496.4,-696"/>
<polyline fill="none" stroke="#388e3c" points="496.4,-696 496.4,-690"/>
<polyline fill="none" stroke="#388e3c" points="502.4,-690 496.4,-690"/>
<text text-anchor="middle" x="471.2" y="-675.27" font-family="Arial" font-size="8.00">var.command</text>
</g>
<!-- mod_var_has_volume -->
<g id="node16" class="node">
<title>mod_var_has_volume</title>
<polygon fill="#e8f5e8" stroke="#388e3c" points="143.87,-581.69 79.97,-581.69 79.97,-545.69 149.87,-545.69 149.87,-575.69 143.87,-581.69"/>
<polyline fill="none" stroke="#388e3c" points="143.87,-581.69 143.87,-575.69"/>
<polyline fill="none" stroke="#388e3c" points="149.87,-575.69 143.87,-575.69"/>
<text text-anchor="middle" x="114.92" y="-560.97" font-family="Arial" font-size="8.00">var.has_volume</text>
</g>
<!-- mod_var_has_volume&#45;&gt;docker_container -->
<g id="edge17" class="edge">
<title>mod_var_has_volume&#45;&gt;docker_container</title>
<path fill="none" stroke="#9e9e9e" stroke-dasharray="1,5" d="M129.48,-545.37C156.99,-510.73 216.82,-435.43 249.78,-393.96"/>
<polygon fill="#9e9e9e" stroke="#9e9e9e" points="252.34,-396.35 255.83,-386.34 246.86,-392 252.34,-396.35"/>
</g>
<!-- mod_var_volume_name -->
<g id="node17" class="node">
<title>mod_var_volume_name</title>
<polygon fill="#e8f5e8" stroke="#388e3c" points="731.4,-520 660,-520 660,-484 737.4,-484 737.4,-514 731.4,-520"/>
<polyline fill="none" stroke="#388e3c" points="731.4,-520 731.4,-514"/>
<polyline fill="none" stroke="#388e3c" points="737.4,-514 731.4,-514"/>
<text text-anchor="middle" x="698.7" y="-499.27" font-family="Arial" font-size="8.00">var.volume_name</text>
</g>
<!-- mod_var_access_docker -->
<g id="node18" class="node">
<title>mod_var_access_docker</title>
<polygon fill="#e8f5e8" stroke="#388e3c" points="436.9,-168 352,-168 352,-132 442.9,-132 442.9,-162 436.9,-168"/>
<polyline fill="none" stroke="#388e3c" points="436.9,-168 436.9,-162"/>
<polyline fill="none" stroke="#388e3c" points="442.9,-162 436.9,-162"/>
<text text-anchor="middle" x="397.45" y="-147.28" font-family="Arial" font-size="8.00">var.access_to_docker</text>
</g>
<!-- root_start -->
<g id="node19" class="node">
<title>root_start</title>
<ellipse fill="#c8e6c9" stroke="#388e3c" cx="601.26" cy="-656.98" rx="32.46" ry="32.46"/>
<text text-anchor="middle" x="601.26" y="-653.48" font-family="Arial" font-size="10.00">START</text>
</g>
<!-- root_start&#45;&gt;provider_docker -->
<g id="edge19" class="edge">
<title>root_start&#45;&gt;provider_docker</title>
<path fill="none" stroke="#2196f3" stroke-width="2" d="M581.22,-631.08C558.12,-601.23 519.77,-551.66 491.8,-515.52"/>
<polygon fill="#2196f3" stroke="#2196f3" stroke-width="2" points="494.58,-513.4 485.69,-507.63 489.04,-517.68 494.58,-513.4"/>
</g>
<!-- root_start&#45;&gt;var_instances -->
<g id="edge18" class="edge">
<title>root_start&#45;&gt;var_instances</title>
<path fill="none" stroke="#4caf50" stroke-width="2" d="M631.87,-645.24C658.55,-635 697.76,-619.95 729.04,-607.95"/>
<polygon fill="#4caf50" stroke="#4caf50" stroke-width="2" points="730.12,-611.28 738.2,-604.43 727.61,-604.75 730.12,-611.28"/>
</g>
<!-- legend_provider -->
<g id="node21" class="node">
<title>legend_provider</title>
<polygon fill="#e3f2fd" stroke="black" points="1522.58,-96.8 1472.18,-70.4 1522.58,-44 1572.98,-70.4 1522.58,-96.8"/>
<text text-anchor="middle" x="1522.58" y="-66.9" font-family="Arial" font-size="10.00">Provider</text>
</g>
<!-- legend_resource -->
<g id="node22" class="node">
<title>legend_resource</title>
<path fill="#fff8e1" stroke="black" d="M1334.04,-88.4C1334.04,-88.4 1296.39,-88.4 1296.39,-88.4 1290.39,-88.4 1284.39,-82.4 1284.39,-76.4 1284.39,-76.4 1284.39,-64.4 1284.39,-64.4 1284.39,-58.4 1290.39,-52.4 1296.39,-52.4 1296.39,-52.4 1334.04,-52.4 1334.04,-52.4 1340.04,-52.4 1346.04,-58.4 1346.04,-64.4 1346.04,-64.4 1346.04,-76.4 1346.04,-76.4 1346.04,-82.4 1340.04,-88.4 1334.04,-88.4"/>
<text text-anchor="middle" x="1315.22" y="-66.9" font-family="Arial" font-size="10.00">Ressource</text>
</g>
<!-- legend_provider&#45;&gt;legend_resource -->
<!-- legend_variable -->
<g id="node23" class="node">
<title>legend_variable</title>
<polygon fill="#e8f5e8" stroke="black" points="1116.3,-88.4 1068.3,-88.4 1068.3,-52.4 1122.3,-52.4 1122.3,-82.4 1116.3,-88.4"/>
<polyline fill="none" stroke="black" points="1116.3,-88.4 1116.3,-82.4"/>
<polyline fill="none" stroke="black" points="1122.3,-82.4 1116.3,-82.4"/>
<text text-anchor="middle" x="1095.3" y="-66.9" font-family="Arial" font-size="10.00">Variable</text>
</g>
<!-- legend_resource&#45;&gt;legend_variable -->
<!-- legend_data -->
<g id="node24" class="node">
<title>legend_data</title>
<ellipse fill="#f3e5f5" stroke="black" cx="897.62" cy="-70.4" rx="61.62" ry="18.67"/>
<text text-anchor="middle" x="897.62" y="-66.9" font-family="Arial" font-size="10.00">Données locales</text>
</g>
<!-- legend_variable&#45;&gt;legend_data -->
</g>
</svg>
