<?xml version="1.0" encoding="UTF-8" standalone="no"?>
<!DOCTYPE svg PUBLIC "-//W3C//DTD SVG 1.1//EN"
 "http://www.w3.org/Graphics/SVG/1.1/DTD/svg11.dtd">
<!-- Generated by graphviz version 12.1.0 (20240811.2233)
 -->
<!-- Pages: 1 -->
<svg width="4123pt" height="1843pt"
 viewBox="0.00 0.00 4123.11 1843.28" xmlns="http://www.w3.org/2000/svg" xmlns:xlink="http://www.w3.org/1999/xlink">
<g id="graph0" class="graph" transform="scale(1 1) rotate(0) translate(4 1839.28)">
<polygon fill="white" stroke="none" points="-4,4 -4,-1839.28 4119.11,-1839.28 4119.11,4 -4,4"/>
<!-- [root] module.docker_instances.data.docker_network.custom_network (expand) -->
<g id="node1" class="node">
<title>[root] module.docker_instances.data.docker_network.custom_network (expand)</title>
<polygon fill="none" stroke="black" points="3707.2,-1353.2 3340.95,-1353.2 3340.95,-1317.2 3707.2,-1317.2 3707.2,-1353.2"/>
<text text-anchor="middle" x="3524.08" y="-1330.15" font-family="Times,serif" font-size="14.00">module.docker_instances.data.docker_network.custom_network</text>
</g>
<!-- [root] provider[&quot;registry.opentofu.org/kreuzwerker/docker&quot;] -->
<g id="node4" class="node">
<title>[root] provider[&quot;registry.opentofu.org/kreuzwerker/docker&quot;]</title>
<polygon fill="none" stroke="black" points="3454.3,-1775.91 3156.58,-1757.91 3454.3,-1739.91 3752.03,-1757.91 3454.3,-1775.91"/>
<text text-anchor="middle" x="3454.3" y="-1752.86" font-family="Times,serif" font-size="14.00">provider[&quot;registry.opentofu.org/kreuzwerker/docker&quot;]</text>
</g>
<!-- [root] module.docker_instances.data.docker_network.custom_network (expand)&#45;&gt;[root] provider[&quot;registry.opentofu.org/kreuzwerker/docker&quot;] -->
<g id="edge8" class="edge">
<title>[root] module.docker_instances.data.docker_network.custom_network (expand)&#45;&gt;[root] provider[&quot;registry.opentofu.org/kreuzwerker/docker&quot;]</title>
<path fill="none" stroke="black" d="M3521.04,-1353.63C3510.08,-1419.99 3472.61,-1647.01 3459.16,-1728.5"/>
<polygon fill="black" stroke="black" points="3455.71,-1727.93 3457.53,-1738.36 3462.61,-1729.07 3455.71,-1727.93"/>
</g>
<!-- [root] module.docker_instances.var.network_name (expand, reference) -->
<g id="node16" class="node">
<title>[root] module.docker_instances.var.network_name (expand, reference)</title>
<ellipse fill="none" stroke="black" cx="3275.6" cy="-1379.23" rx="275.01" ry="18"/>
<text text-anchor="middle" x="3275.6" y="-1374.18" font-family="Times,serif" font-size="14.00">[root] module.docker_instances.var.network_name (expand, reference)</text>
</g>
<!-- [root] module.docker_instances.data.docker_network.custom_network (expand)&#45;&gt;[root] module.docker_instances.var.network_name (expand, reference) -->
<g id="edge7" class="edge">
<title>[root] module.docker_instances.data.docker_network.custom_network (expand)&#45;&gt;[root] module.docker_instances.var.network_name (expand, reference)</title>
<path fill="none" stroke="black" d="M3419.78,-1353.68C3408.01,-1355.77 3395.99,-1357.9 3384.16,-1359.99"/>
<polygon fill="black" stroke="black" points="3383.62,-1356.53 3374.38,-1361.73 3384.84,-1363.43 3383.62,-1356.53"/>
</g>
<!-- [root] module.docker_instances.docker_container.instance (expand) -->
<g id="node2" class="node">
<title>[root] module.docker_instances.docker_container.instance (expand)</title>
<polygon fill="none" stroke="black" points="3294.55,-1021.03 2995.8,-1021.03 2995.8,-985.03 3294.55,-985.03 3294.55,-1021.03"/>
<text text-anchor="middle" x="3145.18" y="-997.98" font-family="Times,serif" font-size="14.00">module.docker_instances.docker_container.instance</text>
</g>
<!-- [root] module.docker_instances.docker_container.instance (expand)&#45;&gt;[root] module.docker_instances.data.docker_network.custom_network (expand) -->
<g id="edge9" class="edge">
<title>[root] module.docker_instances.docker_container.instance (expand)&#45;&gt;[root] module.docker_instances.data.docker_network.custom_network (expand)</title>
<path fill="none" stroke="black" d="M3166.09,-1021.36C3229.74,-1077.17 3421.29,-1245.09 3494.86,-1309.59"/>
<polygon fill="black" stroke="black" points="3492.27,-1311.97 3502.09,-1315.93 3496.88,-1306.7 3492.27,-1311.97"/>
</g>
<!-- [root] module.docker_instances.docker_image.instance (expand) -->
<g id="node3" class="node">
<title>[root] module.docker_instances.docker_image.instance (expand)</title>
<polygon fill="none" stroke="black" points="3119.1,-1550.21 2836.1,-1550.21 2836.1,-1514.21 3119.1,-1514.21 3119.1,-1550.21"/>
<text text-anchor="middle" x="2977.6" y="-1527.16" font-family="Times,serif" font-size="14.00">module.docker_instances.docker_image.instance</text>
</g>
<!-- [root] module.docker_instances.docker_container.instance (expand)&#45;&gt;[root] module.docker_instances.docker_image.instance (expand) -->
<g id="edge10" class="edge">
<title>[root] module.docker_instances.docker_container.instance (expand)&#45;&gt;[root] module.docker_instances.docker_image.instance (expand)</title>
<path fill="none" stroke="black" d="M3139.41,-1021.25C3114.66,-1099.4 3017.34,-1406.7 2986.81,-1503.11"/>
<polygon fill="black" stroke="black" points="2983.57,-1501.76 2983.88,-1512.35 2990.24,-1503.87 2983.57,-1501.76"/>
</g>
<!-- [root] module.docker_instances.var.acces_to_docker (expand, reference) -->
<g id="node17" class="node">
<title>[root] module.docker_instances.var.acces_to_docker (expand, reference)</title>
<ellipse fill="none" stroke="black" cx="2980.63" cy="-405.41" rx="281.15" ry="18"/>
<text text-anchor="middle" x="2980.63" y="-400.36" font-family="Times,serif" font-size="14.00">[root] module.docker_instances.var.acces_to_docker (expand, reference)</text>
</g>
<!-- [root] module.docker_instances.docker_container.instance (expand)&#45;&gt;[root] module.docker_instances.var.acces_to_docker (expand, reference) -->
<g id="edge11" class="edge">
<title>[root] module.docker_instances.docker_container.instance (expand)&#45;&gt;[root] module.docker_instances.var.acces_to_docker (expand, reference)</title>
<path fill="none" stroke="black" d="M3140.16,-984.82C3116.72,-899.68 3017.86,-540.61 2988.74,-434.85"/>
<polygon fill="black" stroke="black" points="2992.12,-433.95 2986.09,-425.24 2985.37,-435.81 2992.12,-433.95"/>
</g>
<!-- [root] module.docker_instances.var.command (expand, reference) -->
<g id="node18" class="node">
<title>[root] module.docker_instances.var.command (expand, reference)</title>
<ellipse fill="none" stroke="black" cx="2767.99" cy="-512.23" rx="257.1" ry="18"/>
<text text-anchor="middle" x="2767.99" y="-507.18" font-family="Times,serif" font-size="14.00">[root] module.docker_instances.var.command (expand, reference)</text>
</g>
<!-- [root] module.docker_instances.docker_container.instance (expand)&#45;&gt;[root] module.docker_instances.var.command (expand, reference) -->
<g id="edge12" class="edge">
<title>[root] module.docker_instances.docker_container.instance (expand)&#45;&gt;[root] module.docker_instances.var.command (expand, reference)</title>
<path fill="none" stroke="black" d="M3131.08,-984.69C3073.72,-910.05 2857.7,-628.95 2789.06,-539.64"/>
<polygon fill="black" stroke="black" points="2791.95,-537.66 2783.08,-531.86 2786.4,-541.92 2791.95,-537.66"/>
</g>
<!-- [root] module.docker_instances.var.container_name (expand, reference) -->
<g id="node19" class="node">
<title>[root] module.docker_instances.var.container_name (expand, reference)</title>
<ellipse fill="none" stroke="black" cx="2752.55" cy="-1185.12" rx="279.11" ry="18"/>
<text text-anchor="middle" x="2752.55" y="-1180.07" font-family="Times,serif" font-size="14.00">[root] module.docker_instances.var.container_name (expand, reference)</text>
</g>
<!-- [root] module.docker_instances.docker_container.instance (expand)&#45;&gt;[root] module.docker_instances.var.container_name (expand, reference) -->
<g id="edge13" class="edge">
<title>[root] module.docker_instances.docker_container.instance (expand)&#45;&gt;[root] module.docker_instances.var.container_name (expand, reference)</title>
<path fill="none" stroke="black" d="M3105.37,-1021.49C3033.16,-1054.98 2880.8,-1125.64 2802.03,-1162.17"/>
<polygon fill="black" stroke="black" points="2800.85,-1158.86 2793.25,-1166.24 2803.79,-1165.21 2800.85,-1158.86"/>
</g>
<!-- [root] module.docker_instances.var.env_vars (expand, reference) -->
<g id="node20" class="node">
<title>[root] module.docker_instances.var.env_vars (expand, reference)</title>
<ellipse fill="none" stroke="black" cx="2536.26" cy="-1404.11" rx="253" ry="18"/>
<text text-anchor="middle" x="2536.26" y="-1399.06" font-family="Times,serif" font-size="14.00">[root] module.docker_instances.var.env_vars (expand, reference)</text>
</g>
<!-- [root] module.docker_instances.docker_container.instance (expand)&#45;&gt;[root] module.docker_instances.var.env_vars (expand, reference) -->
<g id="edge14" class="edge">
<title>[root] module.docker_instances.docker_container.instance (expand)&#45;&gt;[root] module.docker_instances.var.env_vars (expand, reference)</title>
<path fill="none" stroke="black" d="M3117.43,-1021.31C3018.96,-1086.16 2686.17,-1305.37 2573.73,-1379.43"/>
<polygon fill="black" stroke="black" points="2571.86,-1376.47 2565.43,-1384.9 2575.71,-1382.32 2571.86,-1376.47"/>
</g>
<!-- [root] module.docker_instances.var.has_volume (expand, reference) -->
<g id="node21" class="node">
<title>[root] module.docker_instances.var.has_volume (expand, reference)</title>
<ellipse fill="none" stroke="black" cx="2818.75" cy="-754.49" rx="264.78" ry="18"/>
<text text-anchor="middle" x="2818.75" y="-749.44" font-family="Times,serif" font-size="14.00">[root] module.docker_instances.var.has_volume (expand, reference)</text>
</g>
<!-- [root] module.docker_instances.docker_container.instance (expand)&#45;&gt;[root] module.docker_instances.var.has_volume (expand, reference) -->
<g id="edge15" class="edge">
<title>[root] module.docker_instances.docker_container.instance (expand)&#45;&gt;[root] module.docker_instances.var.has_volume (expand, reference)</title>
<path fill="none" stroke="black" d="M3120.91,-984.55C3063.17,-940.59 2917.55,-829.71 2851.83,-779.67"/>
<polygon fill="black" stroke="black" points="2854.02,-776.94 2843.94,-773.67 2849.78,-782.51 2854.02,-776.94"/>
</g>
<!-- [root] module.docker_instances.var.ports (expand, reference) -->
<g id="node22" class="node">
<title>[root] module.docker_instances.var.ports (expand, reference)</title>
<ellipse fill="none" stroke="black" cx="3035.7" cy="-1428.87" rx="238.16" ry="18"/>
<text text-anchor="middle" x="3035.7" y="-1423.82" font-family="Times,serif" font-size="14.00">[root] module.docker_instances.var.ports (expand, reference)</text>
</g>
<!-- [root] module.docker_instances.docker_container.instance (expand)&#45;&gt;[root] module.docker_instances.var.ports (expand, reference) -->
<g id="edge16" class="edge">
<title>[root] module.docker_instances.docker_container.instance (expand)&#45;&gt;[root] module.docker_instances.var.ports (expand, reference)</title>
<path fill="none" stroke="black" d="M3140.47,-1021.33C3123.35,-1087.94 3064.24,-1317.86 3043.2,-1399.68"/>
<polygon fill="black" stroke="black" points="3039.86,-1398.61 3040.76,-1409.17 3046.64,-1400.36 3039.86,-1398.61"/>
</g>
<!-- [root] module.docker_instances.var.volume_name (expand, reference) -->
<g id="node23" class="node">
<title>[root] module.docker_instances.var.volume_name (expand, reference)</title>
<ellipse fill="none" stroke="black" cx="3104.89" cy="-959.02" rx="272.96" ry="18"/>
<text text-anchor="middle" x="3104.89" y="-953.97" font-family="Times,serif" font-size="14.00">[root] module.docker_instances.var.volume_name (expand, reference)</text>
</g>
<!-- [root] module.docker_instances.docker_container.instance (expand)&#45;&gt;[root] module.docker_instances.var.volume_name (expand, reference) -->
<g id="edge17" class="edge">
<title>[root] module.docker_instances.docker_container.instance (expand)&#45;&gt;[root] module.docker_instances.var.volume_name (expand, reference)</title>
<path fill="none" stroke="black" d="M3128.32,-984.62C3128.18,-984.47 3128.04,-984.32 3127.9,-984.16"/>
<polygon fill="black" stroke="black" points="3131.9,-983.35 3122.56,-978.33 3126.74,-988.07 3131.9,-983.35"/>
</g>
<!-- [root] module.docker_instances.docker_image.instance (expand)&#45;&gt;[root] provider[&quot;registry.opentofu.org/kreuzwerker/docker&quot;] -->
<g id="edge19" class="edge">
<title>[root] module.docker_instances.docker_image.instance (expand)&#45;&gt;[root] provider[&quot;registry.opentofu.org/kreuzwerker/docker&quot;]</title>
<path fill="none" stroke="black" d="M3016.61,-1550.68C3104.4,-1592.24 3317.03,-1692.92 3409.79,-1736.84"/>
<polygon fill="black" stroke="black" points="3408.06,-1739.89 3418.6,-1741.01 3411.06,-1733.57 3408.06,-1739.89"/>
</g>
<!-- [root] module.docker_instances.var.image (expand, reference) -->
<g id="node24" class="node">
<title>[root] module.docker_instances.var.image (expand, reference)</title>
<ellipse fill="none" stroke="black" cx="2371.9" cy="-1817.28" rx="242.77" ry="18"/>
<text text-anchor="middle" x="2371.9" y="-1812.23" font-family="Times,serif" font-size="14.00">[root] module.docker_instances.var.image (expand, reference)</text>
</g>
<!-- [root] module.docker_instances.docker_image.instance (expand)&#45;&gt;[root] module.docker_instances.var.image (expand, reference) -->
<g id="edge18" class="edge">
<title>[root] module.docker_instances.docker_image.instance (expand)&#45;&gt;[root] module.docker_instances.var.image (expand, reference)</title>
<path fill="none" stroke="black" d="M2938.32,-1550.69C2831.83,-1600.81 2537.74,-1739.22 2420.79,-1794.27"/>
<polygon fill="black" stroke="black" points="2419.62,-1790.95 2412.06,-1798.37 2422.6,-1797.28 2419.62,-1790.95"/>
</g>
<!-- [root] var.host_aws_access_key_id -->
<g id="node5" class="node">
<title>[root] var.host_aws_access_key_id</title>
<polygon fill="none" stroke="black" points="387.3,-36 222.05,-36 222.05,0 393.3,0 393.3,-30 387.3,-36"/>
<polyline fill="none" stroke="black" points="387.3,-36 387.3,-30"/>
<polyline fill="none" stroke="black" points="393.3,-30 387.3,-30"/>
<text text-anchor="middle" x="307.67" y="-12.95" font-family="Times,serif" font-size="14.00">var.host_aws_access_key_id</text>
</g>
<!-- [root] var.host_aws_default_region -->
<g id="node6" class="node">
<title>[root] var.host_aws_default_region</title>
<polygon fill="none" stroke="black" points="166,-1225.11 0,-1225.11 0,-1189.11 172,-1189.11 172,-1219.11 166,-1225.11"/>
<polyline fill="none" stroke="black" points="166,-1225.11 166,-1219.11"/>
<polyline fill="none" stroke="black" points="172,-1219.11 166,-1219.11"/>
<text text-anchor="middle" x="86" y="-1202.06" font-family="Times,serif" font-size="14.00">var.host_aws_default_region</text>
</g>
<!-- [root] var.host_aws_secret_access_key -->
<g id="node7" class="node">
<title>[root] var.host_aws_secret_access_key</title>
<polygon fill="none" stroke="black" points="1598.99,-398.77 1412.74,-398.77 1412.74,-362.77 1604.99,-362.77 1604.99,-392.77 1598.99,-398.77"/>
<polyline fill="none" stroke="black" points="1598.99,-398.77 1598.99,-392.77"/>
<polyline fill="none" stroke="black" points="1604.99,-392.77 1598.99,-392.77"/>
<text text-anchor="middle" x="1508.87" y="-375.72" font-family="Times,serif" font-size="14.00">var.host_aws_secret_access_key</text>
</g>
<!-- [root] var.instances -->
<g id="node8" class="node">
<title>[root] var.instances</title>
<polygon fill="none" stroke="black" points="227.72,-634.6 147.97,-634.6 147.97,-598.6 233.72,-598.6 233.72,-628.6 227.72,-634.6"/>
<polyline fill="none" stroke="black" points="227.72,-634.6 227.72,-628.6"/>
<polyline fill="none" stroke="black" points="233.72,-628.6 227.72,-628.6"/>
<text text-anchor="middle" x="190.84" y="-611.55" font-family="Times,serif" font-size="14.00">var.instances</text>
</g>
<!-- [root] local.processed_instances (expand) -->
<g id="node9" class="node">
<title>[root] local.processed_instances (expand)</title>
<ellipse fill="none" stroke="black" cx="1090.9" cy="-781.51" rx="164.97" ry="18"/>
<text text-anchor="middle" x="1090.9" y="-776.46" font-family="Times,serif" font-size="14.00">[root] local.processed_instances (expand)</text>
</g>
<!-- [root] var.host_aws_access_key_id (expand, reference) -->
<g id="node10" class="node">
<title>[root] var.host_aws_access_key_id (expand, reference)</title>
<ellipse fill="none" stroke="black" cx="649.79" cy="-342.29" rx="215.13" ry="18"/>
<text text-anchor="middle" x="649.79" y="-337.24" font-family="Times,serif" font-size="14.00">[root] var.host_aws_access_key_id (expand, reference)</text>
</g>
<!-- [root] local.processed_instances (expand)&#45;&gt;[root] var.host_aws_access_key_id (expand, reference) -->
<g id="edge1" class="edge">
<title>[root] local.processed_instances (expand)&#45;&gt;[root] var.host_aws_access_key_id (expand, reference)</title>
<path fill="none" stroke="black" d="M1072.51,-763.19C1003.14,-694.13 757.24,-449.28 676.03,-368.42"/>
<polygon fill="black" stroke="black" points="678.89,-366.32 669.33,-361.75 673.95,-371.28 678.89,-366.32"/>
</g>
<!-- [root] var.host_aws_default_region (expand, reference) -->
<g id="node11" class="node">
<title>[root] var.host_aws_default_region (expand, reference)</title>
<ellipse fill="none" stroke="black" cx="525.55" cy="-1037.88" rx="215.64" ry="18"/>
<text text-anchor="middle" x="525.55" y="-1032.83" font-family="Times,serif" font-size="14.00">[root] var.host_aws_default_region (expand, reference)</text>
</g>
<!-- [root] local.processed_instances (expand)&#45;&gt;[root] var.host_aws_default_region (expand, reference) -->
<g id="edge2" class="edge">
<title>[root] local.processed_instances (expand)&#45;&gt;[root] var.host_aws_default_region (expand, reference)</title>
<path fill="none" stroke="black" d="M1051.59,-799.33C951.41,-844.76 686.58,-964.86 575.6,-1015.19"/>
<polygon fill="black" stroke="black" points="574.39,-1011.89 566.73,-1019.21 577.28,-1018.27 574.39,-1011.89"/>
</g>
<!-- [root] var.host_aws_secret_access_key (expand, reference) -->
<g id="node12" class="node">
<title>[root] var.host_aws_secret_access_key (expand, reference)</title>
<ellipse fill="none" stroke="black" cx="1533.72" cy="-424.77" rx="229.46" ry="18"/>
<text text-anchor="middle" x="1533.72" y="-419.72" font-family="Times,serif" font-size="14.00">[root] var.host_aws_secret_access_key (expand, reference)</text>
</g>
<!-- [root] local.processed_instances (expand)&#45;&gt;[root] var.host_aws_secret_access_key (expand, reference) -->
<g id="edge3" class="edge">
<title>[root] local.processed_instances (expand)&#45;&gt;[root] var.host_aws_secret_access_key (expand, reference)</title>
<path fill="none" stroke="black" d="M1113.47,-763.33C1186.6,-704.41 1417.22,-518.63 1502.02,-450.31"/>
<polygon fill="black" stroke="black" points="1504.16,-453.08 1509.75,-444.08 1499.77,-447.63 1504.16,-453.08"/>
</g>
<!-- [root] var.instances (expand, reference) -->
<g id="node13" class="node">
<title>[root] var.instances (expand, reference)</title>
<ellipse fill="none" stroke="black" cx="549.31" cy="-684.57" rx="156.78" ry="18"/>
<text text-anchor="middle" x="549.31" y="-679.52" font-family="Times,serif" font-size="14.00">[root] var.instances (expand, reference)</text>
</g>
<!-- [root] local.processed_instances (expand)&#45;&gt;[root] var.instances (expand, reference) -->
<g id="edge4" class="edge">
<title>[root] local.processed_instances (expand)&#45;&gt;[root] var.instances (expand, reference)</title>
<path fill="none" stroke="black" d="M1003.28,-765.82C905.6,-748.34 748.06,-720.14 646.62,-701.99"/>
<polygon fill="black" stroke="black" points="647.41,-698.57 636.95,-700.25 646.17,-705.46 647.41,-698.57"/>
</g>
<!-- [root] var.host_aws_access_key_id (expand, reference)&#45;&gt;[root] var.host_aws_access_key_id -->
<g id="edge41" class="edge">
<title>[root] var.host_aws_access_key_id (expand, reference)&#45;&gt;[root] var.host_aws_access_key_id</title>
<path fill="none" stroke="black" d="M630.42,-323.92C572.67,-269.19 401.6,-107.03 334.81,-43.73"/>
<polygon fill="black" stroke="black" points="337.6,-41.54 327.93,-37.2 332.78,-46.62 337.6,-41.54"/>
</g>
<!-- [root] var.host_aws_default_region (expand, reference)&#45;&gt;[root] var.host_aws_default_region -->
<g id="edge42" class="edge">
<title>[root] var.host_aws_default_region (expand, reference)&#45;&gt;[root] var.host_aws_default_region</title>
<path fill="none" stroke="black" d="M478.93,-1055.83C398.22,-1086.9 232.69,-1150.63 144.43,-1184.61"/>
<polygon fill="black" stroke="black" points="143.29,-1181.3 135.22,-1188.16 145.81,-1187.83 143.29,-1181.3"/>
</g>
<!-- [root] var.host_aws_secret_access_key (expand, reference)&#45;&gt;[root] var.host_aws_secret_access_key -->
<g id="edge43" class="edge">
<title>[root] var.host_aws_secret_access_key (expand, reference)&#45;&gt;[root] var.host_aws_secret_access_key</title>
<path fill="none" stroke="black" d="M1523.32,-406.37C1523.24,-406.22 1523.16,-406.07 1523.07,-405.92"/>
<polygon fill="black" stroke="black" points="1528.01,-407.55 1520.05,-400.56 1521.92,-410.99 1528.01,-407.55"/>
</g>
<!-- [root] var.instances (expand, reference)&#45;&gt;[root] var.instances -->
<g id="edge44" class="edge">
<title>[root] var.instances (expand, reference)&#45;&gt;[root] var.instances</title>
<path fill="none" stroke="black" d="M466.62,-668.89C398.58,-655.99 304.09,-638.07 245.25,-626.92"/>
<polygon fill="black" stroke="black" points="245.94,-623.49 235.46,-625.06 244.63,-630.36 245.94,-623.49"/>
</g>
<!-- [root] module.docker_instances (close) -->
<g id="node14" class="node">
<title>[root] module.docker_instances (close)</title>
<ellipse fill="none" stroke="black" cx="3705.34" cy="-908.96" rx="156.27" ry="18"/>
<text text-anchor="middle" x="3705.34" y="-903.91" font-family="Times,serif" font-size="14.00">[root] module.docker_instances (close)</text>
</g>
<!-- [root] module.docker_instances (close)&#45;&gt;[root] module.docker_instances.docker_container.instance (expand) -->
<g id="edge5" class="edge">
<title>[root] module.docker_instances (close)&#45;&gt;[root] module.docker_instances.docker_container.instance (expand)</title>
<path fill="none" stroke="black" d="M3615.34,-924.08C3520.75,-939.96 3371.39,-965.04 3266.45,-982.66"/>
<polygon fill="black" stroke="black" points="3265.94,-979.2 3256.66,-984.31 3267.1,-986.1 3265.94,-979.2"/>
</g>
<!-- [root] module.docker_instances (expand) -->
<g id="node15" class="node">
<title>[root] module.docker_instances (expand)</title>
<ellipse fill="none" stroke="black" cx="1760.99" cy="-999.87" rx="163.95" ry="18"/>
<text text-anchor="middle" x="1760.99" y="-994.82" font-family="Times,serif" font-size="14.00">[root] module.docker_instances (expand)</text>
</g>
<!-- [root] module.docker_instances (expand)&#45;&gt;[root] local.processed_instances (expand) -->
<g id="edge6" class="edge">
<title>[root] module.docker_instances (expand)&#45;&gt;[root] local.processed_instances (expand)</title>
<path fill="none" stroke="black" d="M1707.57,-982.46C1585.58,-942.71 1286.93,-845.39 1155.16,-802.45"/>
<polygon fill="black" stroke="black" points="1156.48,-799.2 1145.89,-799.43 1154.31,-805.85 1156.48,-799.2"/>
</g>
<!-- [root] module.docker_instances.var.network_name (expand, input) -->
<g id="node31" class="node">
<title>[root] module.docker_instances.var.network_name (expand, input)</title>
<ellipse fill="none" stroke="black" cx="2391.45" cy="-1229.16" rx="259.66" ry="18"/>
<text text-anchor="middle" x="2391.45" y="-1224.11" font-family="Times,serif" font-size="14.00">[root] module.docker_instances.var.network_name (expand, input)</text>
</g>
<!-- [root] module.docker_instances.var.network_name (expand, reference)&#45;&gt;[root] module.docker_instances.var.network_name (expand, input) -->
<g id="edge33" class="edge">
<title>[root] module.docker_instances.var.network_name (expand, reference)&#45;&gt;[root] module.docker_instances.var.network_name (expand, input)</title>
<path fill="none" stroke="black" d="M3174.61,-1362.09C3007.9,-1333.79 2676.37,-1277.52 2502.99,-1248.09"/>
<polygon fill="black" stroke="black" points="2503.74,-1244.67 2493.29,-1246.44 2502.57,-1251.57 2503.74,-1244.67"/>
</g>
<!-- [root] module.docker_instances.var.acces_to_docker (expand, input) -->
<g id="node25" class="node">
<title>[root] module.docker_instances.var.acces_to_docker (expand, input)</title>
<ellipse fill="none" stroke="black" cx="2236.77" cy="-520.44" rx="265.8" ry="18"/>
<text text-anchor="middle" x="2236.77" y="-515.39" font-family="Times,serif" font-size="14.00">[root] module.docker_instances.var.acces_to_docker (expand, input)</text>
</g>
<!-- [root] module.docker_instances.var.acces_to_docker (expand, reference)&#45;&gt;[root] module.docker_instances.var.acces_to_docker (expand, input) -->
<g id="edge21" class="edge">
<title>[root] module.docker_instances.var.acces_to_docker (expand, reference)&#45;&gt;[root] module.docker_instances.var.acces_to_docker (expand, input)</title>
<path fill="none" stroke="black" d="M2870.87,-422.39C2733.55,-443.62 2499.2,-479.86 2357.1,-501.83"/>
<polygon fill="black" stroke="black" points="2356.61,-498.36 2347.26,-503.35 2357.68,-505.28 2356.61,-498.36"/>
</g>
<!-- [root] module.docker_instances.var.command (expand, input) -->
<g id="node26" class="node">
<title>[root] module.docker_instances.var.command (expand, input)</title>
<ellipse fill="none" stroke="black" cx="2045.48" cy="-476.39" rx="241.74" ry="18"/>
<text text-anchor="middle" x="2045.48" y="-471.34" font-family="Times,serif" font-size="14.00">[root] module.docker_instances.var.command (expand, input)</text>
</g>
<!-- [root] module.docker_instances.var.command (expand, reference)&#45;&gt;[root] module.docker_instances.var.command (expand, input) -->
<g id="edge23" class="edge">
<title>[root] module.docker_instances.var.command (expand, reference)&#45;&gt;[root] module.docker_instances.var.command (expand, input)</title>
<path fill="none" stroke="black" d="M2556.1,-501.72C2462.77,-497.09 2353.29,-491.66 2259.7,-487.02"/>
<polygon fill="black" stroke="black" points="2260.04,-483.53 2249.88,-486.53 2259.69,-490.52 2260.04,-483.53"/>
</g>
<!-- [root] module.docker_instances.var.container_name (expand, input) -->
<g id="node27" class="node">
<title>[root] module.docker_instances.var.container_name (expand, input)</title>
<ellipse fill="none" stroke="black" cx="2071.47" cy="-1487.62" rx="263.75" ry="18"/>
<text text-anchor="middle" x="2071.47" y="-1482.57" font-family="Times,serif" font-size="14.00">[root] module.docker_instances.var.container_name (expand, input)</text>
</g>
<!-- [root] module.docker_instances.var.container_name (expand, reference)&#45;&gt;[root] module.docker_instances.var.container_name (expand, input) -->
<g id="edge25" class="edge">
<title>[root] module.docker_instances.var.container_name (expand, reference)&#45;&gt;[root] module.docker_instances.var.container_name (expand, input)</title>
<path fill="none" stroke="black" d="M2711.48,-1203.36C2593.43,-1255.79 2253.32,-1406.85 2123.07,-1464.7"/>
<polygon fill="black" stroke="black" points="2121.69,-1461.48 2113.97,-1468.74 2124.53,-1467.88 2121.69,-1461.48"/>
</g>
<!-- [root] module.docker_instances.var.env_vars (expand, input) -->
<g id="node28" class="node">
<title>[root] module.docker_instances.var.env_vars (expand, input)</title>
<ellipse fill="none" stroke="black" cx="1893.26" cy="-1438.43" rx="237.65" ry="18"/>
<text text-anchor="middle" x="1893.26" y="-1433.38" font-family="Times,serif" font-size="14.00">[root] module.docker_instances.var.env_vars (expand, input)</text>
</g>
<!-- [root] module.docker_instances.var.env_vars (expand, reference)&#45;&gt;[root] module.docker_instances.var.env_vars (expand, input) -->
<g id="edge27" class="edge">
<title>[root] module.docker_instances.var.env_vars (expand, reference)&#45;&gt;[root] module.docker_instances.var.env_vars (expand, input)</title>
<path fill="none" stroke="black" d="M2331.92,-1415.02C2258.12,-1418.96 2174.78,-1423.41 2100.71,-1427.36"/>
<polygon fill="black" stroke="black" points="2100.69,-1423.86 2090.89,-1427.88 2101.06,-1430.85 2100.69,-1423.86"/>
</g>
<!-- [root] module.docker_instances.var.has_volume (expand, input) -->
<g id="node29" class="node">
<title>[root] module.docker_instances.var.has_volume (expand, input)</title>
<ellipse fill="none" stroke="black" cx="2182.53" cy="-964.75" rx="249.42" ry="18"/>
<text text-anchor="middle" x="2182.53" y="-959.7" font-family="Times,serif" font-size="14.00">[root] module.docker_instances.var.has_volume (expand, input)</text>
</g>
<!-- [root] module.docker_instances.var.has_volume (expand, reference)&#45;&gt;[root] module.docker_instances.var.has_volume (expand, input) -->
<g id="edge29" class="edge">
<title>[root] module.docker_instances.var.has_volume (expand, reference)&#45;&gt;[root] module.docker_instances.var.has_volume (expand, input)</title>
<path fill="none" stroke="black" d="M2764.23,-772.5C2647.4,-811.12 2373.35,-901.69 2247.64,-943.24"/>
<polygon fill="black" stroke="black" points="2246.86,-939.81 2238.47,-946.27 2249.06,-946.45 2246.86,-939.81"/>
</g>
<!-- [root] module.docker_instances.var.ports (expand, input) -->
<g id="node32" class="node">
<title>[root] module.docker_instances.var.ports (expand, input)</title>
<ellipse fill="none" stroke="black" cx="2278.82" cy="-1359.72" rx="222.81" ry="18"/>
<text text-anchor="middle" x="2278.82" y="-1354.67" font-family="Times,serif" font-size="14.00">[root] module.docker_instances.var.ports (expand, input)</text>
</g>
<!-- [root] module.docker_instances.var.ports (expand, reference)&#45;&gt;[root] module.docker_instances.var.ports (expand, input) -->
<g id="edge35" class="edge">
<title>[root] module.docker_instances.var.ports (expand, reference)&#45;&gt;[root] module.docker_instances.var.ports (expand, input)</title>
<path fill="none" stroke="black" d="M2881.62,-1414.79C2753.11,-1403.05 2570.56,-1386.37 2440.09,-1374.45"/>
<polygon fill="black" stroke="black" points="2440.6,-1370.98 2430.32,-1373.56 2439.96,-1377.95 2440.6,-1370.98"/>
</g>
<!-- [root] module.docker_instances.var.volume_name (expand, input) -->
<g id="node33" class="node">
<title>[root] module.docker_instances.var.volume_name (expand, input)</title>
<ellipse fill="none" stroke="black" cx="2322.19" cy="-801.76" rx="257.61" ry="18"/>
<text text-anchor="middle" x="2322.19" y="-796.71" font-family="Times,serif" font-size="14.00">[root] module.docker_instances.var.volume_name (expand, input)</text>
</g>
<!-- [root] module.docker_instances.var.volume_name (expand, reference)&#45;&gt;[root] module.docker_instances.var.volume_name (expand, input) -->
<g id="edge37" class="edge">
<title>[root] module.docker_instances.var.volume_name (expand, reference)&#45;&gt;[root] module.docker_instances.var.volume_name (expand, input)</title>
<path fill="none" stroke="black" d="M3017.76,-941.52C2870.47,-911.93 2573.33,-852.22 2419.46,-821.31"/>
<polygon fill="black" stroke="black" points="2420.61,-817.97 2410.12,-819.43 2419.24,-824.83 2420.61,-817.97"/>
</g>
<!-- [root] module.docker_instances.var.image (expand, input) -->
<g id="node30" class="node">
<title>[root] module.docker_instances.var.image (expand, input)</title>
<ellipse fill="none" stroke="black" cx="1699.93" cy="-1589.35" rx="227.41" ry="18"/>
<text text-anchor="middle" x="1699.93" y="-1584.3" font-family="Times,serif" font-size="14.00">[root] module.docker_instances.var.image (expand, input)</text>
</g>
<!-- [root] module.docker_instances.var.image (expand, reference)&#45;&gt;[root] module.docker_instances.var.image (expand, input) -->
<g id="edge31" class="edge">
<title>[root] module.docker_instances.var.image (expand, reference)&#45;&gt;[root] module.docker_instances.var.image (expand, input)</title>
<path fill="none" stroke="black" d="M2318.89,-1799.3C2196.66,-1757.84 1895.44,-1655.67 1763.53,-1610.93"/>
<polygon fill="black" stroke="black" points="1764.85,-1607.67 1754.25,-1607.78 1762.6,-1614.3 1764.85,-1607.67"/>
</g>
<!-- [root] module.docker_instances.var.acces_to_docker (expand, input)&#45;&gt;[root] module.docker_instances (expand) -->
<g id="edge20" class="edge">
<title>[root] module.docker_instances.var.acces_to_docker (expand, input)&#45;&gt;[root] module.docker_instances (expand)</title>
<path fill="none" stroke="black" d="M2218.7,-538.64C2145.76,-612.14 1872.87,-887.13 1787.02,-973.64"/>
<polygon fill="black" stroke="black" points="1784.71,-971.01 1780.15,-980.57 1789.67,-975.94 1784.71,-971.01"/>
</g>
<!-- [root] module.docker_instances.var.command (expand, input)&#45;&gt;[root] module.docker_instances (expand) -->
<g id="edge22" class="edge">
<title>[root] module.docker_instances.var.command (expand, input)&#45;&gt;[root] module.docker_instances (expand)</title>
<path fill="none" stroke="black" d="M2035.52,-494.72C1993.19,-572.61 1828.02,-876.53 1776.46,-971.41"/>
<polygon fill="black" stroke="black" points="1773.44,-969.64 1771.74,-980.1 1779.59,-972.98 1773.44,-969.64"/>
</g>
<!-- [root] module.docker_instances.var.container_name (expand, input)&#45;&gt;[root] module.docker_instances (expand) -->
<g id="edge24" class="edge">
<title>[root] module.docker_instances.var.container_name (expand, input)&#45;&gt;[root] module.docker_instances (expand)</title>
<path fill="none" stroke="black" d="M2059.86,-1469.39C2012.75,-1395.37 1835.55,-1117 1778.68,-1027.66"/>
<polygon fill="black" stroke="black" points="1781.79,-1026.03 1773.47,-1019.47 1775.88,-1029.79 1781.79,-1026.03"/>
</g>
<!-- [root] module.docker_instances.var.env_vars (expand, input)&#45;&gt;[root] module.docker_instances (expand) -->
<g id="edge26" class="edge">
<title>[root] module.docker_instances.var.env_vars (expand, input)&#45;&gt;[root] module.docker_instances (expand)</title>
<path fill="none" stroke="black" d="M1887.74,-1420.15C1867.22,-1352.09 1795.14,-1113.09 1769.84,-1029.23"/>
<polygon fill="black" stroke="black" points="1773.21,-1028.25 1766.97,-1019.69 1766.5,-1030.27 1773.21,-1028.25"/>
</g>
<!-- [root] module.docker_instances.var.has_volume (expand, input)&#45;&gt;[root] module.docker_instances (expand) -->
<g id="edge28" class="edge">
<title>[root] module.docker_instances.var.has_volume (expand, input)&#45;&gt;[root] module.docker_instances (expand)</title>
<path fill="none" stroke="black" d="M2016.53,-978.58C1979.37,-981.68 1940.25,-984.94 1904.11,-987.95"/>
<polygon fill="black" stroke="black" points="1904.18,-984.43 1894.5,-988.75 1904.76,-991.41 1904.18,-984.43"/>
</g>
<!-- [root] module.docker_instances.var.image (expand, input)&#45;&gt;[root] module.docker_instances (expand) -->
<g id="edge30" class="edge">
<title>[root] module.docker_instances.var.image (expand, input)&#45;&gt;[root] module.docker_instances (expand)</title>
<path fill="none" stroke="black" d="M1701.82,-1571.06C1710.57,-1486.66 1747.05,-1134.46 1757.92,-1029.51"/>
<polygon fill="black" stroke="black" points="1761.38,-1030.05 1758.93,-1019.74 1754.42,-1029.33 1761.38,-1030.05"/>
</g>
<!-- [root] module.docker_instances.var.network_name (expand, input)&#45;&gt;[root] module.docker_instances (expand) -->
<g id="edge32" class="edge">
<title>[root] module.docker_instances.var.network_name (expand, input)&#45;&gt;[root] module.docker_instances (expand)</title>
<path fill="none" stroke="black" d="M2341.71,-1211.07C2226.84,-1169.29 1943.47,-1066.24 1820.04,-1021.35"/>
<polygon fill="black" stroke="black" points="1821.33,-1018.09 1810.74,-1017.96 1818.94,-1024.67 1821.33,-1018.09"/>
</g>
<!-- [root] module.docker_instances.var.ports (expand, input)&#45;&gt;[root] module.docker_instances (expand) -->
<g id="edge34" class="edge">
<title>[root] module.docker_instances.var.ports (expand, input)&#45;&gt;[root] module.docker_instances (expand)</title>
<path fill="none" stroke="black" d="M2252.43,-1341.38C2166.45,-1281.63 1894.32,-1092.53 1796.47,-1024.53"/>
<polygon fill="black" stroke="black" points="1798.47,-1021.66 1788.26,-1018.83 1794.48,-1027.41 1798.47,-1021.66"/>
</g>
<!-- [root] module.docker_instances.var.volume_name (expand, input)&#45;&gt;[root] module.docker_instances (expand) -->
<g id="edge36" class="edge">
<title>[root] module.docker_instances.var.volume_name (expand, input)&#45;&gt;[root] module.docker_instances (expand)</title>
<path fill="none" stroke="black" d="M2270.9,-819.87C2167.07,-856.52 1932.46,-939.34 1821.42,-978.54"/>
<polygon fill="black" stroke="black" points="1820.44,-975.17 1812.18,-981.8 1822.77,-981.78 1820.44,-975.17"/>
</g>
<!-- [root] provider[&quot;registry.opentofu.org/kreuzwerker/docker&quot;] (close) -->
<g id="node34" class="node">
<title>[root] provider[&quot;registry.opentofu.org/kreuzwerker/docker&quot;] (close)</title>
<ellipse fill="none" stroke="black" cx="3689.43" cy="-683.98" rx="261.7" ry="18"/>
<text text-anchor="middle" x="3689.43" y="-678.93" font-family="Times,serif" font-size="14.00">[root] provider[&quot;registry.opentofu.org/kreuzwerker/docker&quot;] (close)</text>
</g>
<!-- [root] provider[&quot;registry.opentofu.org/kreuzwerker/docker&quot;] (close)&#45;&gt;[root] module.docker_instances.docker_container.instance (expand) -->
<g id="edge38" class="edge">
<title>[root] provider[&quot;registry.opentofu.org/kreuzwerker/docker&quot;] (close)&#45;&gt;[root] module.docker_instances.docker_container.instance (expand)</title>
<path fill="none" stroke="black" d="M3658.21,-702.28C3565.42,-756.67 3291.23,-917.41 3186.49,-978.81"/>
<polygon fill="black" stroke="black" points="3184.77,-975.76 3177.91,-983.84 3188.31,-981.8 3184.77,-975.76"/>
</g>
<!-- [root] root -->
<g id="node35" class="node">
<title>[root] root</title>
<ellipse fill="none" stroke="black" cx="4065.81" cy="-802.19" rx="49.3" ry="18"/>
<text text-anchor="middle" x="4065.81" y="-797.14" font-family="Times,serif" font-size="14.00">[root] root</text>
</g>
<!-- [root] root&#45;&gt;[root] module.docker_instances (close) -->
<g id="edge39" class="edge">
<title>[root] root&#45;&gt;[root] module.docker_instances (close)</title>
<path fill="none" stroke="black" d="M4026.89,-813.72C3966.42,-831.63 3849.08,-866.39 3774.1,-888.6"/>
<polygon fill="black" stroke="black" points="3773.41,-885.15 3764.81,-891.35 3775.4,-891.86 3773.41,-885.15"/>
</g>
<!-- [root] root&#45;&gt;[root] provider[&quot;registry.opentofu.org/kreuzwerker/docker&quot;] (close) -->
<g id="edge40" class="edge">
<title>[root] root&#45;&gt;[root] provider[&quot;registry.opentofu.org/kreuzwerker/docker&quot;] (close)</title>
<path fill="none" stroke="black" d="M4027.99,-790.32C3964.79,-770.46 3836.82,-730.27 3757.59,-705.38"/>
<polygon fill="black" stroke="black" points="3758.77,-702.09 3748.18,-702.43 3756.68,-708.77 3758.77,-702.09"/>
</g>
</g>
</svg>
