<?xml version="1.0" encoding="UTF-8" standalone="no"?>
<!DOCTYPE svg PUBLIC "-//W3C//DTD SVG 1.1//EN"
 "http://www.w3.org/Graphics/SVG/1.1/DTD/svg11.dtd">
<!-- Generated by graphviz version 12.1.0 (20240811.2233)
 -->
<!-- Pages: 1 -->
<svg width="3492pt" height="2042pt"
 viewBox="0.00 0.00 3491.84 2042.28" xmlns="http://www.w3.org/2000/svg" xmlns:xlink="http://www.w3.org/1999/xlink">
<g id="graph0" class="graph" transform="scale(1 1) rotate(0) translate(4 2038.28)">
<polygon fill="white" stroke="none" points="-4,4 -4,-2038.28 3487.84,-2038.28 3487.84,4 -4,4"/>
<!-- [root] module.docker_instances.data.docker_network.custom_network (expand) -->
<g id="node1" class="node">
<title>[root] module.docker_instances.data.docker_network.custom_network (expand)</title>
<polygon fill="none" stroke="black" points="1486.78,-998.85 1120.53,-998.85 1120.53,-962.85 1486.78,-962.85 1486.78,-998.85"/>
<text text-anchor="middle" x="1303.65" y="-975.8" font-family="Times,serif" font-size="14.00">module.docker_instances.data.docker_network.custom_network</text>
</g>
<!-- [root] provider[&quot;registry.opentofu.org/kreuzwerker/docker&quot;] -->
<g id="node4" class="node">
<title>[root] provider[&quot;registry.opentofu.org/kreuzwerker/docker&quot;]</title>
<polygon fill="none" stroke="black" points="945.22,-429.2 647.49,-411.2 945.22,-393.2 1242.94,-411.2 945.22,-429.2"/>
<text text-anchor="middle" x="945.22" y="-406.15" font-family="Times,serif" font-size="14.00">provider[&quot;registry.opentofu.org/kreuzwerker/docker&quot;]</text>
</g>
<!-- [root] module.docker_instances.data.docker_network.custom_network (expand)&#45;&gt;[root] provider[&quot;registry.opentofu.org/kreuzwerker/docker&quot;] -->
<g id="edge8" class="edge">
<title>[root] module.docker_instances.data.docker_network.custom_network (expand)&#45;&gt;[root] provider[&quot;registry.opentofu.org/kreuzwerker/docker&quot;]</title>
<path fill="none" stroke="black" d="M1292.13,-962.54C1239.88,-879.5 1024.99,-537.98 962.4,-438.5"/>
<polygon fill="black" stroke="black" points="965.43,-436.76 957.14,-430.16 959.51,-440.48 965.43,-436.76"/>
</g>
<!-- [root] module.docker_instances.var.network_name (expand, reference) -->
<g id="node16" class="node">
<title>[root] module.docker_instances.var.network_name (expand, reference)</title>
<ellipse fill="none" stroke="black" cx="1837.99" cy="-1487.08" rx="275.01" ry="18"/>
<text text-anchor="middle" x="1837.99" y="-1482.03" font-family="Times,serif" font-size="14.00">[root] module.docker_instances.var.network_name (expand, reference)</text>
</g>
<!-- [root] module.docker_instances.data.docker_network.custom_network (expand)&#45;&gt;[root] module.docker_instances.var.network_name (expand, reference) -->
<g id="edge7" class="edge">
<title>[root] module.docker_instances.data.docker_network.custom_network (expand)&#45;&gt;[root] module.docker_instances.var.network_name (expand, reference)</title>
<path fill="none" stroke="black" d="M1322.98,-999.16C1403.91,-1075.83 1715.6,-1371.13 1810.45,-1460.99"/>
<polygon fill="black" stroke="black" points="1807.92,-1463.41 1817.58,-1467.75 1812.73,-1458.33 1807.92,-1463.41"/>
</g>
<!-- [root] module.docker_instances.docker_container.instance (expand) -->
<g id="node2" class="node">
<title>[root] module.docker_instances.docker_container.instance (expand)</title>
<polygon fill="none" stroke="black" points="1029.82,-1097.41 731.07,-1097.41 731.07,-1061.41 1029.82,-1061.41 1029.82,-1097.41"/>
<text text-anchor="middle" x="880.44" y="-1074.36" font-family="Times,serif" font-size="14.00">module.docker_instances.docker_container.instance</text>
</g>
<!-- [root] module.docker_instances.docker_container.instance (expand)&#45;&gt;[root] module.docker_instances.data.docker_network.custom_network (expand) -->
<g id="edge9" class="edge">
<title>[root] module.docker_instances.docker_container.instance (expand)&#45;&gt;[root] module.docker_instances.data.docker_network.custom_network (expand)</title>
<path fill="none" stroke="black" d="M959.55,-1060.99C1031.72,-1044.18 1138.3,-1019.36 1213.69,-1001.8"/>
<polygon fill="black" stroke="black" points="1214.16,-1005.29 1223.1,-999.61 1212.57,-998.47 1214.16,-1005.29"/>
</g>
<!-- [root] module.docker_instances.docker_image.instance (expand) -->
<g id="node3" class="node">
<title>[root] module.docker_instances.docker_image.instance (expand)</title>
<polygon fill="none" stroke="black" points="1233.71,-298.08 950.71,-298.08 950.71,-262.08 1233.71,-262.08 1233.71,-298.08"/>
<text text-anchor="middle" x="1092.21" y="-275.03" font-family="Times,serif" font-size="14.00">module.docker_instances.docker_image.instance</text>
</g>
<!-- [root] module.docker_instances.docker_container.instance (expand)&#45;&gt;[root] module.docker_instances.docker_image.instance (expand) -->
<g id="edge10" class="edge">
<title>[root] module.docker_instances.docker_container.instance (expand)&#45;&gt;[root] module.docker_instances.docker_image.instance (expand)</title>
<path fill="none" stroke="black" d="M885.26,-1061.21C912.81,-957.22 1050.31,-438.23 1084.5,-309.17"/>
<polygon fill="black" stroke="black" points="1087.83,-310.28 1087.01,-299.71 1081.06,-308.48 1087.83,-310.28"/>
</g>
<!-- [root] module.docker_instances.var.acces_to_docker (expand, reference) -->
<g id="node17" class="node">
<title>[root] module.docker_instances.var.acces_to_docker (expand, reference)</title>
<ellipse fill="none" stroke="black" cx="1357.19" cy="-1598.38" rx="281.15" ry="18"/>
<text text-anchor="middle" x="1357.19" y="-1593.33" font-family="Times,serif" font-size="14.00">[root] module.docker_instances.var.acces_to_docker (expand, reference)</text>
</g>
<!-- [root] module.docker_instances.docker_container.instance (expand)&#45;&gt;[root] module.docker_instances.var.acces_to_docker (expand, reference) -->
<g id="edge11" class="edge">
<title>[root] module.docker_instances.docker_container.instance (expand)&#45;&gt;[root] module.docker_instances.var.acces_to_docker (expand, reference)</title>
<path fill="none" stroke="black" d="M897.41,-1097.88C969.24,-1176.07 1248.45,-1480.02 1332.88,-1571.91"/>
<polygon fill="black" stroke="black" points="1330.06,-1574.02 1339.4,-1579.02 1335.21,-1569.28 1330.06,-1574.02"/>
</g>
<!-- [root] module.docker_instances.var.command (expand, reference) -->
<g id="node18" class="node">
<title>[root] module.docker_instances.var.command (expand, reference)</title>
<ellipse fill="none" stroke="black" cx="1091.87" cy="-1842.34" rx="257.1" ry="18"/>
<text text-anchor="middle" x="1091.87" y="-1837.29" font-family="Times,serif" font-size="14.00">[root] module.docker_instances.var.command (expand, reference)</text>
</g>
<!-- [root] module.docker_instances.docker_container.instance (expand)&#45;&gt;[root] module.docker_instances.var.command (expand, reference) -->
<g id="edge12" class="edge">
<title>[root] module.docker_instances.docker_container.instance (expand)&#45;&gt;[root] module.docker_instances.var.command (expand, reference)</title>
<path fill="none" stroke="black" d="M885.56,-1097.89C913.67,-1199.3 1049.13,-1688.12 1083.78,-1813.16"/>
<polygon fill="black" stroke="black" points="1080.37,-1813.94 1086.41,-1822.64 1087.11,-1812.07 1080.37,-1813.94"/>
</g>
<!-- [root] module.docker_instances.var.container_name (expand, reference) -->
<g id="node19" class="node">
<title>[root] module.docker_instances.var.container_name (expand, reference)</title>
<ellipse fill="none" stroke="black" cx="1433.95" cy="-837.45" rx="279.11" ry="18"/>
<text text-anchor="middle" x="1433.95" y="-832.4" font-family="Times,serif" font-size="14.00">[root] module.docker_instances.var.container_name (expand, reference)</text>
</g>
<!-- [root] module.docker_instances.docker_container.instance (expand)&#45;&gt;[root] module.docker_instances.var.container_name (expand, reference) -->
<g id="edge13" class="edge">
<title>[root] module.docker_instances.docker_container.instance (expand)&#45;&gt;[root] module.docker_instances.var.container_name (expand, reference)</title>
<path fill="none" stroke="black" d="M922.5,-1061.03C1022.23,-1017.43 1272.88,-907.86 1381.92,-860.2"/>
<polygon fill="black" stroke="black" points="1383.18,-863.46 1390.95,-856.25 1380.38,-857.05 1383.18,-863.46"/>
</g>
<!-- [root] module.docker_instances.var.env_vars (expand, reference) -->
<g id="node20" class="node">
<title>[root] module.docker_instances.var.env_vars (expand, reference)</title>
<ellipse fill="none" stroke="black" cx="1112.26" cy="-645.59" rx="253" ry="18"/>
<text text-anchor="middle" x="1112.26" y="-640.54" font-family="Times,serif" font-size="14.00">[root] module.docker_instances.var.env_vars (expand, reference)</text>
</g>
<!-- [root] module.docker_instances.docker_container.instance (expand)&#45;&gt;[root] module.docker_instances.var.env_vars (expand, reference) -->
<g id="edge14" class="edge">
<title>[root] module.docker_instances.docker_container.instance (expand)&#45;&gt;[root] module.docker_instances.var.env_vars (expand, reference)</title>
<path fill="none" stroke="black" d="M890.25,-1061.05C926.54,-993.14 1053.31,-755.91 1097.18,-673.81"/>
<polygon fill="black" stroke="black" points="1100.24,-675.52 1101.86,-665.05 1094.06,-672.22 1100.24,-675.52"/>
</g>
<!-- [root] module.docker_instances.var.has_volume (expand, reference) -->
<g id="node21" class="node">
<title>[root] module.docker_instances.var.has_volume (expand, reference)</title>
<ellipse fill="none" stroke="black" cx="763.64" cy="-897.1" rx="264.78" ry="18"/>
<text text-anchor="middle" x="763.64" y="-892.05" font-family="Times,serif" font-size="14.00">[root] module.docker_instances.var.has_volume (expand, reference)</text>
</g>
<!-- [root] module.docker_instances.docker_container.instance (expand)&#45;&gt;[root] module.docker_instances.var.has_volume (expand, reference) -->
<g id="edge15" class="edge">
<title>[root] module.docker_instances.docker_container.instance (expand)&#45;&gt;[root] module.docker_instances.var.has_volume (expand, reference)</title>
<path fill="none" stroke="black" d="M868.6,-1060.93C847.99,-1028.77 805.45,-962.36 781.33,-924.72"/>
<polygon fill="black" stroke="black" points="784.5,-923.17 776.15,-916.63 778.6,-926.94 784.5,-923.17"/>
</g>
<!-- [root] module.docker_instances.var.ports (expand, reference) -->
<g id="node22" class="node">
<title>[root] module.docker_instances.var.ports (expand, reference)</title>
<ellipse fill="none" stroke="black" cx="869.84" cy="-1736.07" rx="238.16" ry="18"/>
<text text-anchor="middle" x="869.84" y="-1731.02" font-family="Times,serif" font-size="14.00">[root] module.docker_instances.var.ports (expand, reference)</text>
</g>
<!-- [root] module.docker_instances.docker_container.instance (expand)&#45;&gt;[root] module.docker_instances.var.ports (expand, reference) -->
<g id="edge16" class="edge">
<title>[root] module.docker_instances.docker_container.instance (expand)&#45;&gt;[root] module.docker_instances.var.ports (expand, reference)</title>
<path fill="none" stroke="black" d="M880.15,-1097.66C878.68,-1188.6 872.15,-1592.94 870.32,-1706.39"/>
<polygon fill="black" stroke="black" points="866.82,-1706.03 870.16,-1716.09 873.82,-1706.15 866.82,-1706.03"/>
</g>
<!-- [root] module.docker_instances.var.volume_name (expand, reference) -->
<g id="node23" class="node">
<title>[root] module.docker_instances.var.volume_name (expand, reference)</title>
<ellipse fill="none" stroke="black" cx="729.41" cy="-1479.19" rx="272.96" ry="18"/>
<text text-anchor="middle" x="729.41" y="-1474.14" font-family="Times,serif" font-size="14.00">[root] module.docker_instances.var.volume_name (expand, reference)</text>
</g>
<!-- [root] module.docker_instances.docker_container.instance (expand)&#45;&gt;[root] module.docker_instances.var.volume_name (expand, reference) -->
<g id="edge17" class="edge">
<title>[root] module.docker_instances.docker_container.instance (expand)&#45;&gt;[root] module.docker_instances.var.volume_name (expand, reference)</title>
<path fill="none" stroke="black" d="M873.46,-1097.89C849.35,-1161.71 769.48,-1373.12 740.25,-1450.49"/>
<polygon fill="black" stroke="black" points="737.11,-1448.89 736.85,-1459.49 743.66,-1451.37 737.11,-1448.89"/>
</g>
<!-- [root] module.docker_instances.docker_image.instance (expand)&#45;&gt;[root] provider[&quot;registry.opentofu.org/kreuzwerker/docker&quot;] -->
<g id="edge19" class="edge">
<title>[root] module.docker_instances.docker_image.instance (expand)&#45;&gt;[root] provider[&quot;registry.opentofu.org/kreuzwerker/docker&quot;]</title>
<path fill="none" stroke="black" d="M1071.77,-298.31C1046.03,-321.27 1001.71,-360.81 972.94,-386.47"/>
<polygon fill="black" stroke="black" points="970.81,-383.68 965.68,-392.95 975.47,-388.91 970.81,-383.68"/>
</g>
<!-- [root] module.docker_instances.var.image (expand, reference) -->
<g id="node24" class="node">
<title>[root] module.docker_instances.var.image (expand, reference)</title>
<ellipse fill="none" stroke="black" cx="1605.3" cy="-18" rx="242.77" ry="18"/>
<text text-anchor="middle" x="1605.3" y="-12.95" font-family="Times,serif" font-size="14.00">[root] module.docker_instances.var.image (expand, reference)</text>
</g>
<!-- [root] module.docker_instances.docker_image.instance (expand)&#45;&gt;[root] module.docker_instances.var.image (expand, reference) -->
<g id="edge18" class="edge">
<title>[root] module.docker_instances.docker_image.instance (expand)&#45;&gt;[root] module.docker_instances.var.image (expand, reference)</title>
<path fill="none" stroke="black" d="M1128.29,-261.65C1219.38,-215.12 1458.59,-92.94 1559.43,-41.43"/>
<polygon fill="black" stroke="black" points="1560.94,-44.59 1568.25,-36.92 1557.76,-38.35 1560.94,-44.59"/>
</g>
<!-- [root] var.host_aws_access_key_id -->
<g id="node5" class="node">
<title>[root] var.host_aws_access_key_id</title>
<polygon fill="none" stroke="black" points="3477.84,-1178.65 3312.59,-1178.65 3312.59,-1142.65 3483.84,-1142.65 3483.84,-1172.65 3477.84,-1178.65"/>
<polyline fill="none" stroke="black" points="3477.84,-1178.65 3477.84,-1172.65"/>
<polyline fill="none" stroke="black" points="3483.84,-1172.65 3477.84,-1172.65"/>
<text text-anchor="middle" x="3398.21" y="-1155.6" font-family="Times,serif" font-size="14.00">var.host_aws_access_key_id</text>
</g>
<!-- [root] var.host_aws_default_region -->
<g id="node6" class="node">
<title>[root] var.host_aws_default_region</title>
<polygon fill="none" stroke="black" points="3306.15,-440.11 3140.15,-440.11 3140.15,-404.11 3312.15,-404.11 3312.15,-434.11 3306.15,-440.11"/>
<polyline fill="none" stroke="black" points="3306.15,-440.11 3306.15,-434.11"/>
<polyline fill="none" stroke="black" points="3312.15,-434.11 3306.15,-434.11"/>
<text text-anchor="middle" x="3226.15" y="-417.06" font-family="Times,serif" font-size="14.00">var.host_aws_default_region</text>
</g>
<!-- [root] var.host_aws_secret_access_key -->
<g id="node7" class="node">
<title>[root] var.host_aws_secret_access_key</title>
<polygon fill="none" stroke="black" points="3197.55,-1804.15 3011.3,-1804.15 3011.3,-1768.15 3203.55,-1768.15 3203.55,-1798.15 3197.55,-1804.15"/>
<polyline fill="none" stroke="black" points="3197.55,-1804.15 3197.55,-1798.15"/>
<polyline fill="none" stroke="black" points="3203.55,-1798.15 3197.55,-1798.15"/>
<text text-anchor="middle" x="3107.43" y="-1781.1" font-family="Times,serif" font-size="14.00">var.host_aws_secret_access_key</text>
</g>
<!-- [root] var.instances -->
<g id="node8" class="node">
<title>[root] var.instances</title>
<polygon fill="none" stroke="black" points="2807.47,-43.94 2727.72,-43.94 2727.72,-7.94 2813.47,-7.94 2813.47,-37.94 2807.47,-43.94"/>
<polyline fill="none" stroke="black" points="2807.47,-43.94 2807.47,-37.94"/>
<polyline fill="none" stroke="black" points="2813.47,-37.94 2807.47,-37.94"/>
<text text-anchor="middle" x="2770.59" y="-20.89" font-family="Times,serif" font-size="14.00">var.instances</text>
</g>
<!-- [root] local.processed_instances (expand) -->
<g id="node9" class="node">
<title>[root] local.processed_instances (expand)</title>
<ellipse fill="none" stroke="black" cx="2768.8" cy="-1033.37" rx="164.97" ry="18"/>
<text text-anchor="middle" x="2768.8" y="-1028.32" font-family="Times,serif" font-size="14.00">[root] local.processed_instances (expand)</text>
</g>
<!-- [root] var.host_aws_access_key_id (expand, reference) -->
<g id="node10" class="node">
<title>[root] var.host_aws_access_key_id (expand, reference)</title>
<ellipse fill="none" stroke="black" cx="3259.14" cy="-1066.62" rx="215.13" ry="18"/>
<text text-anchor="middle" x="3259.14" y="-1061.57" font-family="Times,serif" font-size="14.00">[root] var.host_aws_access_key_id (expand, reference)</text>
</g>
<!-- [root] local.processed_instances (expand)&#45;&gt;[root] var.host_aws_access_key_id (expand, reference) -->
<g id="edge1" class="edge">
<title>[root] local.processed_instances (expand)&#45;&gt;[root] var.host_aws_access_key_id (expand, reference)</title>
<path fill="none" stroke="black" d="M2909.97,-1042.94C2962.65,-1046.52 3023.18,-1050.62 3078.89,-1054.4"/>
<polygon fill="black" stroke="black" points="3078.61,-1057.89 3088.83,-1055.07 3079.09,-1050.9 3078.61,-1057.89"/>
</g>
<!-- [root] var.host_aws_default_region (expand, reference) -->
<g id="node11" class="node">
<title>[root] var.host_aws_default_region (expand, reference)</title>
<ellipse fill="none" stroke="black" cx="3182.2" cy="-707.73" rx="215.64" ry="18"/>
<text text-anchor="middle" x="3182.2" y="-702.68" font-family="Times,serif" font-size="14.00">[root] var.host_aws_default_region (expand, reference)</text>
</g>
<!-- [root] local.processed_instances (expand)&#45;&gt;[root] var.host_aws_default_region (expand, reference) -->
<g id="edge2" class="edge">
<title>[root] local.processed_instances (expand)&#45;&gt;[root] var.host_aws_default_region (expand, reference)</title>
<path fill="none" stroke="black" d="M2791.92,-1015.17C2861.66,-960.22 3070.16,-795.99 3150.32,-732.85"/>
<polygon fill="black" stroke="black" points="3152.12,-735.89 3157.81,-726.95 3147.79,-730.39 3152.12,-735.89"/>
</g>
<!-- [root] var.host_aws_secret_access_key (expand, reference) -->
<g id="node12" class="node">
<title>[root] var.host_aws_secret_access_key (expand, reference)</title>
<ellipse fill="none" stroke="black" cx="3121.1" cy="-1483.76" rx="229.46" ry="18"/>
<text text-anchor="middle" x="3121.1" y="-1478.71" font-family="Times,serif" font-size="14.00">[root] var.host_aws_secret_access_key (expand, reference)</text>
</g>
<!-- [root] local.processed_instances (expand)&#45;&gt;[root] var.host_aws_secret_access_key (expand, reference) -->
<g id="edge3" class="edge">
<title>[root] local.processed_instances (expand)&#45;&gt;[root] var.host_aws_secret_access_key (expand, reference)</title>
<path fill="none" stroke="black" d="M2783.05,-1051.58C2837.71,-1121.47 3034.23,-1372.7 3099.7,-1456.41"/>
<polygon fill="black" stroke="black" points="3096.82,-1458.41 3105.74,-1464.13 3102.33,-1454.09 3096.82,-1458.41"/>
</g>
<!-- [root] var.instances (expand, reference) -->
<g id="node13" class="node">
<title>[root] var.instances (expand, reference)</title>
<ellipse fill="none" stroke="black" cx="2930.69" cy="-406.25" rx="156.78" ry="18"/>
<text text-anchor="middle" x="2930.69" y="-401.2" font-family="Times,serif" font-size="14.00">[root] var.instances (expand, reference)</text>
</g>
<!-- [root] local.processed_instances (expand)&#45;&gt;[root] var.instances (expand, reference) -->
<g id="edge4" class="edge">
<title>[root] local.processed_instances (expand)&#45;&gt;[root] var.instances (expand, reference)</title>
<path fill="none" stroke="black" d="M2773.56,-1014.94C2796.41,-926.42 2894.96,-544.64 2923.14,-435.5"/>
<polygon fill="black" stroke="black" points="2926.44,-436.7 2925.55,-426.14 2919.66,-434.95 2926.44,-436.7"/>
</g>
<!-- [root] var.host_aws_access_key_id (expand, reference)&#45;&gt;[root] var.host_aws_access_key_id -->
<g id="edge41" class="edge">
<title>[root] var.host_aws_access_key_id (expand, reference)&#45;&gt;[root] var.host_aws_access_key_id</title>
<path fill="none" stroke="black" d="M3285.96,-1084.75C3307.46,-1099.29 3337.87,-1119.85 3361.61,-1135.91"/>
<polygon fill="black" stroke="black" points="3359.51,-1138.71 3369.75,-1141.41 3363.43,-1132.91 3359.51,-1138.71"/>
</g>
<!-- [root] var.host_aws_default_region (expand, reference)&#45;&gt;[root] var.host_aws_default_region -->
<g id="edge42" class="edge">
<title>[root] var.host_aws_default_region (expand, reference)&#45;&gt;[root] var.host_aws_default_region</title>
<path fill="none" stroke="black" d="M3185.02,-689.43C3192.45,-641.17 3212.61,-510.12 3221.66,-451.33"/>
<polygon fill="black" stroke="black" points="3225.07,-452.18 3223.13,-441.76 3218.15,-451.11 3225.07,-452.18"/>
</g>
<!-- [root] var.host_aws_secret_access_key (expand, reference)&#45;&gt;[root] var.host_aws_secret_access_key -->
<g id="edge43" class="edge">
<title>[root] var.host_aws_secret_access_key (expand, reference)&#45;&gt;[root] var.host_aws_secret_access_key</title>
<path fill="none" stroke="black" d="M3120.26,-1502.22C3117.97,-1552.95 3111.56,-1694.81 3108.76,-1756.68"/>
<polygon fill="black" stroke="black" points="3105.28,-1756.28 3108.32,-1766.42 3112.27,-1756.59 3105.28,-1756.28"/>
</g>
<!-- [root] var.instances (expand, reference)&#45;&gt;[root] var.instances -->
<g id="edge44" class="edge">
<title>[root] var.instances (expand, reference)&#45;&gt;[root] var.instances</title>
<path fill="none" stroke="black" d="M2922.97,-387.91C2897.18,-326.66 2813.92,-128.87 2782.63,-54.54"/>
<polygon fill="black" stroke="black" points="2785.93,-53.36 2778.82,-45.5 2779.48,-56.07 2785.93,-53.36"/>
</g>
<!-- [root] module.docker_instances (close) -->
<g id="node14" class="node">
<title>[root] module.docker_instances (close)</title>
<ellipse fill="none" stroke="black" cx="282.95" cy="-810.59" rx="156.27" ry="18"/>
<text text-anchor="middle" x="282.95" y="-805.54" font-family="Times,serif" font-size="14.00">[root] module.docker_instances (close)</text>
</g>
<!-- [root] module.docker_instances (close)&#45;&gt;[root] module.docker_instances.docker_container.instance (expand) -->
<g id="edge5" class="edge">
<title>[root] module.docker_instances (close)&#45;&gt;[root] module.docker_instances.docker_container.instance (expand)</title>
<path fill="none" stroke="black" d="M322.61,-828.44C427.5,-875.63 712.14,-1003.69 829.15,-1056.34"/>
<polygon fill="black" stroke="black" points="827.67,-1059.51 838.23,-1060.42 830.55,-1053.12 827.67,-1059.51"/>
</g>
<!-- [root] module.docker_instances (expand) -->
<g id="node15" class="node">
<title>[root] module.docker_instances (expand)</title>
<ellipse fill="none" stroke="black" cx="1812.56" cy="-1334.24" rx="163.95" ry="18"/>
<text text-anchor="middle" x="1812.56" y="-1329.19" font-family="Times,serif" font-size="14.00">[root] module.docker_instances (expand)</text>
</g>
<!-- [root] module.docker_instances (expand)&#45;&gt;[root] local.processed_instances (expand) -->
<g id="edge6" class="edge">
<title>[root] module.docker_instances (expand)&#45;&gt;[root] local.processed_instances (expand)</title>
<path fill="none" stroke="black" d="M1867.75,-1316.87C2033.13,-1264.84 2524.15,-1110.35 2702.84,-1054.13"/>
<polygon fill="black" stroke="black" points="2703.71,-1057.52 2712.2,-1051.18 2701.61,-1050.84 2703.71,-1057.52"/>
</g>
<!-- [root] module.docker_instances.var.network_name (expand, input) -->
<g id="node31" class="node">
<title>[root] module.docker_instances.var.network_name (expand, input)</title>
<ellipse fill="none" stroke="black" cx="2175.02" cy="-1721.95" rx="259.66" ry="18"/>
<text text-anchor="middle" x="2175.02" y="-1716.9" font-family="Times,serif" font-size="14.00">[root] module.docker_instances.var.network_name (expand, input)</text>
</g>
<!-- [root] module.docker_instances.var.network_name (expand, reference)&#45;&gt;[root] module.docker_instances.var.network_name (expand, input) -->
<g id="edge33" class="edge">
<title>[root] module.docker_instances.var.network_name (expand, reference)&#45;&gt;[root] module.docker_instances.var.network_name (expand, input)</title>
<path fill="none" stroke="black" d="M1864.16,-1505.31C1924.13,-1547.11 2071.56,-1649.85 2139.58,-1697.25"/>
<polygon fill="black" stroke="black" points="2137.19,-1699.85 2147.39,-1702.7 2141.19,-1694.11 2137.19,-1699.85"/>
</g>
<!-- [root] module.docker_instances.var.acces_to_docker (expand, input) -->
<g id="node25" class="node">
<title>[root] module.docker_instances.var.acces_to_docker (expand, input)</title>
<ellipse fill="none" stroke="black" cx="1798.87" cy="-1863.9" rx="265.8" ry="18"/>
<text text-anchor="middle" x="1798.87" y="-1858.85" font-family="Times,serif" font-size="14.00">[root] module.docker_instances.var.acces_to_docker (expand, input)</text>
</g>
<!-- [root] module.docker_instances.var.acces_to_docker (expand, reference)&#45;&gt;[root] module.docker_instances.var.acces_to_docker (expand, input) -->
<g id="edge21" class="edge">
<title>[root] module.docker_instances.var.acces_to_docker (expand, reference)&#45;&gt;[root] module.docker_instances.var.acces_to_docker (expand, input)</title>
<path fill="none" stroke="black" d="M1387.55,-1616.63C1465.26,-1663.35 1671.38,-1787.26 1758.79,-1839.8"/>
<polygon fill="black" stroke="black" points="1756.93,-1842.77 1767.3,-1844.92 1760.53,-1836.77 1756.93,-1842.77"/>
</g>
<!-- [root] module.docker_instances.var.command (expand, input) -->
<g id="node26" class="node">
<title>[root] module.docker_instances.var.command (expand, input)</title>
<ellipse fill="none" stroke="black" cx="1574.89" cy="-2016.28" rx="241.74" ry="18"/>
<text text-anchor="middle" x="1574.89" y="-2011.23" font-family="Times,serif" font-size="14.00">[root] module.docker_instances.var.command (expand, input)</text>
</g>
<!-- [root] module.docker_instances.var.command (expand, reference)&#45;&gt;[root] module.docker_instances.var.command (expand, input) -->
<g id="edge23" class="edge">
<title>[root] module.docker_instances.var.command (expand, reference)&#45;&gt;[root] module.docker_instances.var.command (expand, input)</title>
<path fill="none" stroke="black" d="M1142.19,-1860.46C1231.54,-1892.63 1417.5,-1959.6 1513.94,-1994.33"/>
<polygon fill="black" stroke="black" points="1512.66,-1997.59 1523.26,-1997.68 1515.03,-1991 1512.66,-1997.59"/>
</g>
<!-- [root] module.docker_instances.var.container_name (expand, input) -->
<g id="node27" class="node">
<title>[root] module.docker_instances.var.container_name (expand, input)</title>
<ellipse fill="none" stroke="black" cx="1925.79" cy="-948.74" rx="263.75" ry="18"/>
<text text-anchor="middle" x="1925.79" y="-943.69" font-family="Times,serif" font-size="14.00">[root] module.docker_instances.var.container_name (expand, input)</text>
</g>
<!-- [root] module.docker_instances.var.container_name (expand, reference)&#45;&gt;[root] module.docker_instances.var.container_name (expand, input) -->
<g id="edge25" class="edge">
<title>[root] module.docker_instances.var.container_name (expand, reference)&#45;&gt;[root] module.docker_instances.var.container_name (expand, input)</title>
<path fill="none" stroke="black" d="M1512.15,-855.15C1600.58,-875.16 1744.25,-907.67 1836.87,-928.62"/>
<polygon fill="black" stroke="black" points="1835.9,-931.99 1846.43,-930.79 1837.44,-925.17 1835.9,-931.99"/>
</g>
<!-- [root] module.docker_instances.var.env_vars (expand, input) -->
<g id="node28" class="node">
<title>[root] module.docker_instances.var.env_vars (expand, input)</title>
<ellipse fill="none" stroke="black" cx="1634.25" cy="-770.98" rx="237.65" ry="18"/>
<text text-anchor="middle" x="1634.25" y="-765.93" font-family="Times,serif" font-size="14.00">[root] module.docker_instances.var.env_vars (expand, input)</text>
</g>
<!-- [root] module.docker_instances.var.env_vars (expand, reference)&#45;&gt;[root] module.docker_instances.var.env_vars (expand, input) -->
<g id="edge27" class="edge">
<title>[root] module.docker_instances.var.env_vars (expand, reference)&#45;&gt;[root] module.docker_instances.var.env_vars (expand, input)</title>
<path fill="none" stroke="black" d="M1185.94,-663.29C1281.97,-686.36 1449.49,-726.6 1550.31,-750.82"/>
<polygon fill="black" stroke="black" points="1549.35,-754.19 1559.89,-753.12 1550.99,-747.38 1549.35,-754.19"/>
</g>
<!-- [root] module.docker_instances.var.has_volume (expand, input) -->
<g id="node29" class="node">
<title>[root] module.docker_instances.var.has_volume (expand, input)</title>
<ellipse fill="none" stroke="black" cx="1202.54" cy="-1202.1" rx="249.42" ry="18"/>
<text text-anchor="middle" x="1202.54" y="-1197.05" font-family="Times,serif" font-size="14.00">[root] module.docker_instances.var.has_volume (expand, input)</text>
</g>
<!-- [root] module.docker_instances.var.has_volume (expand, reference)&#45;&gt;[root] module.docker_instances.var.has_volume (expand, input) -->
<g id="edge29" class="edge">
<title>[root] module.docker_instances.var.has_volume (expand, reference)&#45;&gt;[root] module.docker_instances.var.has_volume (expand, input)</title>
<path fill="none" stroke="black" d="M790.1,-915.49C865.5,-967.88 1081.47,-1117.96 1167.02,-1177.41"/>
<polygon fill="black" stroke="black" points="1164.86,-1180.18 1175.07,-1183.01 1168.86,-1174.43 1164.86,-1180.18"/>
</g>
<!-- [root] module.docker_instances.var.ports (expand, input) -->
<g id="node32" class="node">
<title>[root] module.docker_instances.var.ports (expand, input)</title>
<ellipse fill="none" stroke="black" cx="1356.34" cy="-1912.03" rx="222.81" ry="18"/>
<text text-anchor="middle" x="1356.34" y="-1906.98" font-family="Times,serif" font-size="14.00">[root] module.docker_instances.var.ports (expand, input)</text>
</g>
<!-- [root] module.docker_instances.var.ports (expand, reference)&#45;&gt;[root] module.docker_instances.var.ports (expand, input) -->
<g id="edge35" class="edge">
<title>[root] module.docker_instances.var.ports (expand, reference)&#45;&gt;[root] module.docker_instances.var.ports (expand, input)</title>
<path fill="none" stroke="black" d="M919.62,-1754.08C1009.51,-1786.59 1198.6,-1854.98 1295.81,-1890.14"/>
<polygon fill="black" stroke="black" points="1294.61,-1893.43 1305.21,-1893.54 1296.99,-1886.85 1294.61,-1893.43"/>
</g>
<!-- [root] module.docker_instances.var.volume_name (expand, input) -->
<g id="node33" class="node">
<title>[root] module.docker_instances.var.volume_name (expand, input)</title>
<ellipse fill="none" stroke="black" cx="1165.61" cy="-1554.31" rx="257.61" ry="18"/>
<text text-anchor="middle" x="1165.61" y="-1549.26" font-family="Times,serif" font-size="14.00">[root] module.docker_instances.var.volume_name (expand, input)</text>
</g>
<!-- [root] module.docker_instances.var.volume_name (expand, reference)&#45;&gt;[root] module.docker_instances.var.volume_name (expand, input) -->
<g id="edge37" class="edge">
<title>[root] module.docker_instances.var.volume_name (expand, reference)&#45;&gt;[root] module.docker_instances.var.volume_name (expand, input)</title>
<path fill="none" stroke="black" d="M829.21,-1496.37C896.77,-1508.01 986.04,-1523.38 1055.64,-1535.37"/>
<polygon fill="black" stroke="black" points="1054.7,-1538.76 1065.14,-1537.01 1055.88,-1531.86 1054.7,-1538.76"/>
</g>
<!-- [root] module.docker_instances.var.image (expand, input) -->
<g id="node30" class="node">
<title>[root] module.docker_instances.var.image (expand, input)</title>
<ellipse fill="none" stroke="black" cx="1881.15" cy="-525.5" rx="227.41" ry="18"/>
<text text-anchor="middle" x="1881.15" y="-520.45" font-family="Times,serif" font-size="14.00">[root] module.docker_instances.var.image (expand, input)</text>
</g>
<!-- [root] module.docker_instances.var.image (expand, reference)&#45;&gt;[root] module.docker_instances.var.image (expand, input) -->
<g id="edge31" class="edge">
<title>[root] module.docker_instances.var.image (expand, reference)&#45;&gt;[root] module.docker_instances.var.image (expand, input)</title>
<path fill="none" stroke="black" d="M1615.28,-36.36C1656.72,-112.6 1815.38,-404.5 1865.72,-497.12"/>
<polygon fill="black" stroke="black" points="1862.61,-498.71 1870.46,-505.83 1868.76,-495.37 1862.61,-498.71"/>
</g>
<!-- [root] module.docker_instances.var.acces_to_docker (expand, input)&#45;&gt;[root] module.docker_instances (expand) -->
<g id="edge20" class="edge">
<title>[root] module.docker_instances.var.acces_to_docker (expand, input)&#45;&gt;[root] module.docker_instances (expand)</title>
<path fill="none" stroke="black" d="M1799.35,-1845.67C1801.36,-1767.6 1809.28,-1461.11 1811.79,-1363.95"/>
<polygon fill="black" stroke="black" points="1815.28,-1364.27 1812.04,-1354.18 1808.28,-1364.09 1815.28,-1364.27"/>
</g>
<!-- [root] module.docker_instances.var.command (expand, input)&#45;&gt;[root] module.docker_instances (expand) -->
<g id="edge22" class="edge">
<title>[root] module.docker_instances.var.command (expand, input)&#45;&gt;[root] module.docker_instances (expand)</title>
<path fill="none" stroke="black" d="M1581.25,-1998.03C1613.83,-1904.54 1762.11,-1479 1802.42,-1363.33"/>
<polygon fill="black" stroke="black" points="1805.7,-1364.56 1805.68,-1353.97 1799.09,-1362.26 1805.7,-1364.56"/>
</g>
<!-- [root] module.docker_instances.var.container_name (expand, input)&#45;&gt;[root] module.docker_instances (expand) -->
<g id="edge24" class="edge">
<title>[root] module.docker_instances.var.container_name (expand, input)&#45;&gt;[root] module.docker_instances (expand)</title>
<path fill="none" stroke="black" d="M1920.4,-967.08C1902.26,-1028.85 1843.27,-1229.69 1821.09,-1305.19"/>
<polygon fill="black" stroke="black" points="1817.86,-1303.76 1818.4,-1314.34 1824.58,-1305.73 1817.86,-1303.76"/>
</g>
<!-- [root] module.docker_instances.var.env_vars (expand, input)&#45;&gt;[root] module.docker_instances (expand) -->
<g id="edge26" class="edge">
<title>[root] module.docker_instances.var.env_vars (expand, input)&#45;&gt;[root] module.docker_instances (expand)</title>
<path fill="none" stroke="black" d="M1640.08,-789.4C1666.06,-871.47 1771.39,-1204.2 1803.33,-1305.1"/>
<polygon fill="black" stroke="black" points="1799.96,-1306.04 1806.31,-1314.52 1806.63,-1303.93 1799.96,-1306.04"/>
</g>
<!-- [root] module.docker_instances.var.has_volume (expand, input)&#45;&gt;[root] module.docker_instances (expand) -->
<g id="edge28" class="edge">
<title>[root] module.docker_instances.var.has_volume (expand, input)&#45;&gt;[root] module.docker_instances (expand)</title>
<path fill="none" stroke="black" d="M1283.23,-1219.58C1398.04,-1244.45 1607.68,-1289.86 1725.76,-1315.44"/>
<polygon fill="black" stroke="black" points="1724.9,-1318.83 1735.41,-1317.53 1726.38,-1311.99 1724.9,-1318.83"/>
</g>
<!-- [root] module.docker_instances.var.image (expand, input)&#45;&gt;[root] module.docker_instances (expand) -->
<g id="edge30" class="edge">
<title>[root] module.docker_instances.var.image (expand, input)&#45;&gt;[root] module.docker_instances (expand)</title>
<path fill="none" stroke="black" d="M1879.58,-543.91C1870.67,-649.02 1826.22,-1173.18 1815.09,-1304.41"/>
<polygon fill="black" stroke="black" points="1811.6,-1304.09 1814.24,-1314.35 1818.58,-1304.68 1811.6,-1304.09"/>
</g>
<!-- [root] module.docker_instances.var.network_name (expand, input)&#45;&gt;[root] module.docker_instances (expand) -->
<g id="edge32" class="edge">
<title>[root] module.docker_instances.var.network_name (expand, input)&#45;&gt;[root] module.docker_instances (expand)</title>
<path fill="none" stroke="black" d="M2157.78,-1703.51C2098.97,-1640.6 1906.08,-1434.28 1837.24,-1360.65"/>
<polygon fill="black" stroke="black" points="1839.9,-1358.36 1830.51,-1353.45 1834.79,-1363.14 1839.9,-1358.36"/>
</g>
<!-- [root] module.docker_instances.var.ports (expand, input)&#45;&gt;[root] module.docker_instances (expand) -->
<g id="edge34" class="edge">
<title>[root] module.docker_instances.var.ports (expand, input)&#45;&gt;[root] module.docker_instances (expand)</title>
<path fill="none" stroke="black" d="M1370.74,-1893.79C1436.92,-1809.98 1711.87,-1461.75 1791.1,-1361.41"/>
<polygon fill="black" stroke="black" points="1793.76,-1363.7 1797.21,-1353.68 1788.26,-1359.36 1793.76,-1363.7"/>
</g>
<!-- [root] module.docker_instances.var.volume_name (expand, input)&#45;&gt;[root] module.docker_instances (expand) -->
<g id="edge36" class="edge">
<title>[root] module.docker_instances.var.volume_name (expand, input)&#45;&gt;[root] module.docker_instances (expand)</title>
<path fill="none" stroke="black" d="M1218.56,-1536.3C1337.17,-1495.95 1623.72,-1398.48 1750.47,-1355.36"/>
<polygon fill="black" stroke="black" points="1751.37,-1358.75 1759.71,-1352.22 1749.11,-1352.13 1751.37,-1358.75"/>
</g>
<!-- [root] provider[&quot;registry.opentofu.org/kreuzwerker/docker&quot;] (close) -->
<g id="node34" class="node">
<title>[root] provider[&quot;registry.opentofu.org/kreuzwerker/docker&quot;] (close)</title>
<ellipse fill="none" stroke="black" cx="263.82" cy="-636.07" rx="261.7" ry="18"/>
<text text-anchor="middle" x="263.82" y="-631.02" font-family="Times,serif" font-size="14.00">[root] provider[&quot;registry.opentofu.org/kreuzwerker/docker&quot;] (close)</text>
</g>
<!-- [root] provider[&quot;registry.opentofu.org/kreuzwerker/docker&quot;] (close)&#45;&gt;[root] module.docker_instances.docker_container.instance (expand) -->
<g id="edge38" class="edge">
<title>[root] provider[&quot;registry.opentofu.org/kreuzwerker/docker&quot;] (close)&#45;&gt;[root] module.docker_instances.docker_container.instance (expand)</title>
<path fill="none" stroke="black" d="M289.15,-654.27C386.15,-724.02 734.2,-974.27 845.77,-1054.48"/>
<polygon fill="black" stroke="black" points="843.52,-1057.17 853.68,-1060.17 847.6,-1051.49 843.52,-1057.17"/>
</g>
<!-- [root] root -->
<g id="node35" class="node">
<title>[root] root</title>
<ellipse fill="none" stroke="black" cx="49.3" cy="-375.9" rx="49.3" ry="18"/>
<text text-anchor="middle" x="49.3" y="-370.85" font-family="Times,serif" font-size="14.00">[root] root</text>
</g>
<!-- [root] root&#45;&gt;[root] module.docker_instances (close) -->
<g id="edge39" class="edge">
<title>[root] root&#45;&gt;[root] module.docker_instances (close)</title>
<path fill="none" stroke="black" d="M59.05,-394.02C95.41,-461.68 223.41,-699.82 267.72,-782.26"/>
<polygon fill="black" stroke="black" points="264.63,-783.9 272.45,-791.05 270.8,-780.59 264.63,-783.9"/>
</g>
<!-- [root] root&#45;&gt;[root] provider[&quot;registry.opentofu.org/kreuzwerker/docker&quot;] (close) -->
<g id="edge40" class="edge">
<title>[root] root&#45;&gt;[root] provider[&quot;registry.opentofu.org/kreuzwerker/docker&quot;] (close)</title>
<path fill="none" stroke="black" d="M63.71,-393.37C100.39,-437.85 197.49,-555.61 241.53,-609.03"/>
<polygon fill="black" stroke="black" points="238.6,-610.98 247.66,-616.46 244,-606.52 238.6,-610.98"/>
</g>
</g>
</svg>
