<?xml version="1.0" encoding="UTF-8" standalone="no"?>
<!DOCTYPE svg PUBLIC "-//W3C//DTD SVG 1.1//EN"
 "http://www.w3.org/Graphics/SVG/1.1/DTD/svg11.dtd">
<!-- Generated by graphviz version 12.1.0 (20240811.2233)
 -->
<!-- Pages: 1 -->
<svg width="2728pt" height="1192pt"
 viewBox="0.00 0.00 2728.41 1192.37" xmlns="http://www.w3.org/2000/svg" xmlns:xlink="http://www.w3.org/1999/xlink">
<g id="graph0" class="graph" transform="scale(1 1) rotate(0) translate(4 1188.37)">
<polygon fill="white" stroke="none" points="-4,4 -4,-1188.37 2724.41,-1188.37 2724.41,4 -4,4"/>
<!-- [root] var.host_aws_access_key_id -->
<g id="node1" class="node">
<title>[root] var.host_aws_access_key_id</title>
<polygon fill="#fff2b2" stroke="black" points="192.79,-333.54 28.29,-333.54 28.29,-297.54 198.79,-297.54 198.79,-327.54 192.79,-333.54"/>
<polyline fill="none" stroke="black" points="192.79,-333.54 192.79,-327.54"/>
<polyline fill="none" stroke="black" points="198.79,-327.54 192.79,-327.54"/>
<text text-anchor="middle" x="113.54" y="-312.04" font-family="Helvetica,sans-Serif" font-size="10.00">[root] var.host_aws_access_key_id</text>
</g>
<!-- [root] var.host_aws_default_region -->
<g id="node2" class="node">
<title>[root] var.host_aws_default_region</title>
<polygon fill="#fff2b2" stroke="black" points="160,-819.12 0,-819.12 0,-783.12 166,-783.12 166,-813.12 160,-819.12"/>
<polyline fill="none" stroke="black" points="160,-819.12 160,-813.12"/>
<polyline fill="none" stroke="black" points="166,-813.12 160,-813.12"/>
<text text-anchor="middle" x="83" y="-797.62" font-family="Helvetica,sans-Serif" font-size="10.00">[root] var.host_aws_default_region</text>
</g>
<!-- [root] var.host_aws_secret_access_key -->
<g id="node3" class="node">
<title>[root] var.host_aws_secret_access_key</title>
<polygon fill="#fff2b2" stroke="black" points="520.04,-36 336.04,-36 336.04,0 526.04,0 526.04,-30 520.04,-36"/>
<polyline fill="none" stroke="black" points="520.04,-36 520.04,-30"/>
<polyline fill="none" stroke="black" points="526.04,-30 520.04,-30"/>
<text text-anchor="middle" x="431.04" y="-14.5" font-family="Helvetica,sans-Serif" font-size="10.00">[root] var.host_aws_secret_access_key</text>
</g>
<!-- [root] var.instances -->
<g id="node4" class="node">
<title>[root] var.instances</title>
<polygon fill="#fff2b2" stroke="black" points="382.51,-1184.37 288.51,-1184.37 288.51,-1148.37 388.51,-1148.37 388.51,-1178.37 382.51,-1184.37"/>
<polyline fill="none" stroke="black" points="382.51,-1184.37 382.51,-1178.37"/>
<polyline fill="none" stroke="black" points="388.51,-1178.37 382.51,-1178.37"/>
<text text-anchor="middle" x="338.51" y="-1162.87" font-family="Helvetica,sans-Serif" font-size="10.00">[root] var.instances</text>
</g>
<!-- [root] provider[&quot;registry.opentofu.org/kreuzwerker/docker&quot;] -->
<g id="node5" class="node">
<title>[root] provider[&quot;registry.opentofu.org/kreuzwerker/docker&quot;]</title>
<polygon fill="#fbb4ae" stroke="black" points="2140.56,-1142.72 1913.92,-1124.72 2140.56,-1106.72 2367.19,-1124.72 2140.56,-1142.72"/>
<text text-anchor="middle" x="2140.56" y="-1121.22" font-family="Helvetica,sans-Serif" font-size="10.00">[root] provider[&quot;registry.opentofu.org/kreuzwerker/docker&quot;]</text>
</g>
<!-- [root] module.docker_instances.data.docker_network.custom_network (expand) -->
<g id="node6" class="node">
<title>[root] module.docker_instances.data.docker_network.custom_network (expand)</title>
<polygon fill="#ccebc5" stroke="black" points="2111.19,-962.58 1749.44,-962.58 1749.44,-926.58 2111.19,-926.58 2111.19,-962.58"/>
<text text-anchor="middle" x="1930.32" y="-941.08" font-family="Helvetica,sans-Serif" font-size="10.00">[root] module.docker_instances.data.docker_network.custom_network (expand)</text>
</g>
<!-- [root] module.docker_instances.data.docker_network.custom_network (expand)&#45;&gt;[root] provider[&quot;registry.opentofu.org/kreuzwerker/docker&quot;] -->
<g id="edge8" class="edge">
<title>[root] module.docker_instances.data.docker_network.custom_network (expand)&#45;&gt;[root] provider[&quot;registry.opentofu.org/kreuzwerker/docker&quot;]</title>
<path fill="none" stroke="#666666" d="M1951.63,-962.84C1989.84,-995.58 2069.95,-1064.22 2112.54,-1100.72"/>
<polygon fill="#666666" stroke="#666666" points="2110.01,-1103.16 2119.88,-1107.01 2114.57,-1097.84 2110.01,-1103.16"/>
</g>
<!-- [root] module.docker_instances.var.network_name (expand, reference) -->
<g id="node17" class="node">
<title>[root] module.docker_instances.var.network_name (expand, reference)</title>
<polygon fill="#eeeeee" stroke="black" points="1793.9,-1162.95 1471.15,-1162.95 1471.15,-1126.95 1793.9,-1126.95 1793.9,-1162.95"/>
<text text-anchor="middle" x="1632.53" y="-1141.45" font-family="Helvetica,sans-Serif" font-size="10.00">[root] module.docker_instances.var.network_name (expand, reference)</text>
</g>
<!-- [root] module.docker_instances.data.docker_network.custom_network (expand)&#45;&gt;[root] module.docker_instances.var.network_name (expand, reference) -->
<g id="edge7" class="edge">
<title>[root] module.docker_instances.data.docker_network.custom_network (expand)&#45;&gt;[root] module.docker_instances.var.network_name (expand, reference)</title>
<path fill="none" stroke="#666666" d="M1902.84,-963.07C1849.1,-999.23 1730.07,-1079.32 1669.49,-1120.08"/>
<polygon fill="#666666" stroke="#666666" points="1667.54,-1117.17 1661.2,-1125.66 1671.45,-1122.98 1667.54,-1117.17"/>
</g>
<!-- [root] module.docker_instances.docker_container.instance (expand) -->
<g id="node7" class="node">
<title>[root] module.docker_instances.docker_container.instance (expand)</title>
<polygon fill="#a6cee3" stroke="black" points="2195.07,-514.5 1885.07,-514.5 1885.07,-478.5 2195.07,-478.5 2195.07,-514.5"/>
<text text-anchor="middle" x="2040.07" y="-493" font-family="Helvetica,sans-Serif" font-size="10.00">[root] module.docker_instances.docker_container.instance (expand)</text>
</g>
<!-- [root] module.docker_instances.docker_container.instance (expand)&#45;&gt;[root] module.docker_instances.data.docker_network.custom_network (expand) -->
<g id="edge9" class="edge">
<title>[root] module.docker_instances.docker_container.instance (expand)&#45;&gt;[root] module.docker_instances.data.docker_network.custom_network (expand)</title>
<path fill="none" stroke="#666666" d="M2035.57,-514.9C2018.59,-584.19 1958.44,-829.78 1937.54,-915.11"/>
<polygon fill="#666666" stroke="#666666" points="1934.14,-914.26 1935.16,-924.8 1940.94,-915.92 1934.14,-914.26"/>
</g>
<!-- [root] module.docker_instances.docker_image.instance (expand) -->
<g id="node8" class="node">
<title>[root] module.docker_instances.docker_image.instance (expand)</title>
<polygon fill="#a6cee3" stroke="black" points="2261.41,-881.3 1964.91,-881.3 1964.91,-845.3 2261.41,-845.3 2261.41,-881.3"/>
<text text-anchor="middle" x="2113.16" y="-859.8" font-family="Helvetica,sans-Serif" font-size="10.00">[root] module.docker_instances.docker_image.instance (expand)</text>
</g>
<!-- [root] module.docker_instances.docker_container.instance (expand)&#45;&gt;[root] module.docker_instances.docker_image.instance (expand) -->
<g id="edge10" class="edge">
<title>[root] module.docker_instances.docker_container.instance (expand)&#45;&gt;[root] module.docker_instances.docker_image.instance (expand)</title>
<path fill="none" stroke="#666666" d="M2043.75,-514.94C2055.59,-574.39 2092.85,-761.35 2107.33,-834.01"/>
<polygon fill="#666666" stroke="#666666" points="2103.84,-834.43 2109.23,-843.56 2110.71,-833.07 2103.84,-834.43"/>
</g>
<!-- [root] module.docker_instances.var.acces_to_docker (expand, reference) -->
<g id="node18" class="node">
<title>[root] module.docker_instances.var.acces_to_docker (expand, reference)</title>
<polygon fill="#eeeeee" stroke="black" points="2034.44,-728.77 1701.19,-728.77 1701.19,-692.77 2034.44,-692.77 2034.44,-728.77"/>
<text text-anchor="middle" x="1867.82" y="-707.27" font-family="Helvetica,sans-Serif" font-size="10.00">[root] module.docker_instances.var.acces_to_docker (expand, reference)</text>
</g>
<!-- [root] module.docker_instances.docker_container.instance (expand)&#45;&gt;[root] module.docker_instances.var.acces_to_docker (expand, reference) -->
<g id="edge11" class="edge">
<title>[root] module.docker_instances.docker_container.instance (expand)&#45;&gt;[root] module.docker_instances.var.acces_to_docker (expand, reference)</title>
<path fill="none" stroke="#666666" d="M2025.39,-514.77C1995,-552.56 1925.12,-639.5 1889.52,-683.78"/>
<polygon fill="#666666" stroke="#666666" points="1886.95,-681.38 1883.41,-691.37 1892.41,-685.77 1886.95,-681.38"/>
</g>
<!-- [root] module.docker_instances.var.command (expand, reference) -->
<g id="node19" class="node">
<title>[root] module.docker_instances.var.command (expand, reference)</title>
<polygon fill="#eeeeee" stroke="black" points="1885.24,-647.42 1583.49,-647.42 1583.49,-611.42 1885.24,-611.42 1885.24,-647.42"/>
<text text-anchor="middle" x="1734.37" y="-625.92" font-family="Helvetica,sans-Serif" font-size="10.00">[root] module.docker_instances.var.command (expand, reference)</text>
</g>
<!-- [root] module.docker_instances.docker_container.instance (expand)&#45;&gt;[root] module.docker_instances.var.command (expand, reference) -->
<g id="edge12" class="edge">
<title>[root] module.docker_instances.docker_container.instance (expand)&#45;&gt;[root] module.docker_instances.var.command (expand, reference)</title>
<path fill="none" stroke="#666666" d="M1997.57,-514.98C1942.47,-538.94 1846.41,-580.7 1786.83,-606.61"/>
<polygon fill="#666666" stroke="#666666" points="1785.68,-603.29 1777.9,-610.49 1788.47,-609.71 1785.68,-603.29"/>
</g>
<!-- [root] module.docker_instances.var.container_name (expand, reference) -->
<g id="node20" class="node">
<title>[root] module.docker_instances.var.container_name (expand, reference)</title>
<polygon fill="#eeeeee" stroke="black" points="2019.78,-300.44 1691.78,-300.44 1691.78,-264.44 2019.78,-264.44 2019.78,-300.44"/>
<text text-anchor="middle" x="1855.78" y="-278.94" font-family="Helvetica,sans-Serif" font-size="10.00">[root] module.docker_instances.var.container_name (expand, reference)</text>
</g>
<!-- [root] module.docker_instances.docker_container.instance (expand)&#45;&gt;[root] module.docker_instances.var.container_name (expand, reference) -->
<g id="edge13" class="edge">
<title>[root] module.docker_instances.docker_container.instance (expand)&#45;&gt;[root] module.docker_instances.var.container_name (expand, reference)</title>
<path fill="none" stroke="#666666" d="M2024.36,-478.25C1991.79,-440.41 1916.77,-353.28 1878.76,-309.13"/>
<polygon fill="#666666" stroke="#666666" points="1881.62,-307.09 1872.44,-301.79 1876.31,-311.65 1881.62,-307.09"/>
</g>
<!-- [root] module.docker_instances.var.env_vars (expand, reference) -->
<g id="node21" class="node">
<title>[root] module.docker_instances.var.env_vars (expand, reference)</title>
<polygon fill="#eeeeee" stroke="black" points="1852.68,-325.91 1553.93,-325.91 1553.93,-289.91 1852.68,-289.91 1852.68,-325.91"/>
<text text-anchor="middle" x="1703.3" y="-304.41" font-family="Helvetica,sans-Serif" font-size="10.00">[root] module.docker_instances.var.env_vars (expand, reference)</text>
</g>
<!-- [root] module.docker_instances.docker_container.instance (expand)&#45;&gt;[root] module.docker_instances.var.env_vars (expand, reference) -->
<g id="edge14" class="edge">
<title>[root] module.docker_instances.docker_container.instance (expand)&#45;&gt;[root] module.docker_instances.var.env_vars (expand, reference)</title>
<path fill="none" stroke="#666666" d="M2007.17,-478.08C1945.77,-443.69 1813.83,-369.81 1745.8,-331.71"/>
<polygon fill="#666666" stroke="#666666" points="1747.6,-328.71 1737.16,-326.88 1744.18,-334.82 1747.6,-328.71"/>
</g>
<!-- [root] module.docker_instances.var.has_volume (expand, reference) -->
<g id="node22" class="node">
<title>[root] module.docker_instances.var.has_volume (expand, reference)</title>
<polygon fill="#eeeeee" stroke="black" points="2204.41,-358.88 1892.91,-358.88 1892.91,-322.88 2204.41,-322.88 2204.41,-358.88"/>
<text text-anchor="middle" x="2048.66" y="-337.38" font-family="Helvetica,sans-Serif" font-size="10.00">[root] module.docker_instances.var.has_volume (expand, reference)</text>
</g>
<!-- [root] module.docker_instances.docker_container.instance (expand)&#45;&gt;[root] module.docker_instances.var.has_volume (expand, reference) -->
<g id="edge15" class="edge">
<title>[root] module.docker_instances.docker_container.instance (expand)&#45;&gt;[root] module.docker_instances.var.has_volume (expand, reference)</title>
<path fill="none" stroke="#666666" d="M2041.09,-478.04C2042.56,-451.48 2045.28,-402.21 2047.02,-370.52"/>
<polygon fill="#666666" stroke="#666666" points="2050.5,-371.01 2047.56,-360.83 2043.51,-370.62 2050.5,-371.01"/>
</g>
<!-- [root] module.docker_instances.var.ports (expand, reference) -->
<g id="node23" class="node">
<title>[root] module.docker_instances.var.ports (expand, reference)</title>
<polygon fill="#eeeeee" stroke="black" points="2127.85,-161.13 1847.1,-161.13 1847.1,-125.13 2127.85,-125.13 2127.85,-161.13"/>
<text text-anchor="middle" x="1987.47" y="-139.63" font-family="Helvetica,sans-Serif" font-size="10.00">[root] module.docker_instances.var.ports (expand, reference)</text>
</g>
<!-- [root] module.docker_instances.docker_container.instance (expand)&#45;&gt;[root] module.docker_instances.var.ports (expand, reference) -->
<g id="edge16" class="edge">
<title>[root] module.docker_instances.docker_container.instance (expand)&#45;&gt;[root] module.docker_instances.var.ports (expand, reference)</title>
<path fill="none" stroke="#666666" d="M2037.39,-478.49C2028.88,-421.32 2002.42,-243.55 1991.87,-172.71"/>
<polygon fill="#666666" stroke="#666666" points="1995.37,-172.4 1990.43,-163.02 1988.44,-173.43 1995.37,-172.4"/>
</g>
<!-- [root] module.docker_instances.var.volume_name (expand, reference) -->
<g id="node24" class="node">
<title>[root] module.docker_instances.var.volume_name (expand, reference)</title>
<polygon fill="#eeeeee" stroke="black" points="1996.02,-139.35 1676.27,-139.35 1676.27,-103.35 1996.02,-103.35 1996.02,-139.35"/>
<text text-anchor="middle" x="1836.15" y="-117.85" font-family="Helvetica,sans-Serif" font-size="10.00">[root] module.docker_instances.var.volume_name (expand, reference)</text>
</g>
<!-- [root] module.docker_instances.docker_container.instance (expand)&#45;&gt;[root] module.docker_instances.var.volume_name (expand, reference) -->
<g id="edge17" class="edge">
<title>[root] module.docker_instances.docker_container.instance (expand)&#45;&gt;[root] module.docker_instances.var.volume_name (expand, reference)</title>
<path fill="none" stroke="#666666" d="M2030.1,-478.15C1997.1,-417.44 1891.28,-222.78 1851.48,-149.56"/>
<polygon fill="#666666" stroke="#666666" points="1854.67,-148.11 1846.82,-141 1848.52,-151.45 1854.67,-148.11"/>
</g>
<!-- [root] module.docker_instances.docker_image.instance (expand)&#45;&gt;[root] provider[&quot;registry.opentofu.org/kreuzwerker/docker&quot;] -->
<g id="edge19" class="edge">
<title>[root] module.docker_instances.docker_image.instance (expand)&#45;&gt;[root] provider[&quot;registry.opentofu.org/kreuzwerker/docker&quot;]</title>
<path fill="none" stroke="#666666" d="M2115.09,-881.68C2119.78,-926.42 2131.81,-1041.24 2137.49,-1095.49"/>
<polygon fill="#666666" stroke="#666666" points="2133.99,-1095.62 2138.51,-1105.2 2140.95,-1094.89 2133.99,-1095.62"/>
</g>
<!-- [root] module.docker_instances.var.image (expand, reference) -->
<g id="node25" class="node">
<title>[root] module.docker_instances.var.image (expand, reference)</title>
<polygon fill="#eeeeee" stroke="black" points="2077.38,-1075.1 1792.13,-1075.1 1792.13,-1039.1 2077.38,-1039.1 2077.38,-1075.1"/>
<text text-anchor="middle" x="1934.76" y="-1053.6" font-family="Helvetica,sans-Serif" font-size="10.00">[root] module.docker_instances.var.image (expand, reference)</text>
</g>
<!-- [root] module.docker_instances.docker_image.instance (expand)&#45;&gt;[root] module.docker_instances.var.image (expand, reference) -->
<g id="edge18" class="edge">
<title>[root] module.docker_instances.docker_image.instance (expand)&#45;&gt;[root] module.docker_instances.var.image (expand, reference)</title>
<path fill="none" stroke="#666666" d="M2096.38,-881.53C2064.77,-915.87 1996.27,-990.28 1959.42,-1030.32"/>
<polygon fill="#666666" stroke="#666666" points="1956.85,-1027.94 1952.65,-1037.66 1962,-1032.68 1956.85,-1027.94"/>
</g>
<!-- [root] local.processed_instances (expand) -->
<g id="node9" class="node">
<title>[root] local.processed_instances (expand)</title>
<ellipse fill="#d8bdfc" stroke="black" cx="667.61" cy="-562.18" rx="118.76" ry="18"/>
<text text-anchor="middle" x="667.61" y="-558.68" font-family="Helvetica,sans-Serif" font-size="10.00">[root] local.processed_instances (expand)</text>
</g>
<!-- [root] var.host_aws_access_key_id (expand, reference) -->
<g id="node13" class="node">
<title>[root] var.host_aws_access_key_id (expand, reference)</title>
<polygon fill="#eeeeee" stroke="black" points="448.05,-454.2 190.55,-454.2 190.55,-418.2 448.05,-418.2 448.05,-454.2"/>
<text text-anchor="middle" x="319.3" y="-432.7" font-family="Helvetica,sans-Serif" font-size="10.00">[root] var.host_aws_access_key_id (expand, reference)</text>
</g>
<!-- [root] local.processed_instances (expand)&#45;&gt;[root] var.host_aws_access_key_id (expand, reference) -->
<g id="edge1" class="edge">
<title>[root] local.processed_instances (expand)&#45;&gt;[root] var.host_aws_access_key_id (expand, reference)</title>
<path fill="none" stroke="#666666" d="M620.64,-545.19C558.68,-522.78 449.51,-483.29 380.96,-458.5"/>
<polygon fill="#666666" stroke="#666666" points="382.34,-455.28 371.75,-455.17 379.96,-461.86 382.34,-455.28"/>
</g>
<!-- [root] var.host_aws_default_region (expand, reference) -->
<g id="node14" class="node">
<title>[root] var.host_aws_default_region (expand, reference)</title>
<polygon fill="#eeeeee" stroke="black" points="436.26,-707.85 183.26,-707.85 183.26,-671.85 436.26,-671.85 436.26,-707.85"/>
<text text-anchor="middle" x="309.76" y="-686.35" font-family="Helvetica,sans-Serif" font-size="10.00">[root] var.host_aws_default_region (expand, reference)</text>
</g>
<!-- [root] local.processed_instances (expand)&#45;&gt;[root] var.host_aws_default_region (expand, reference) -->
<g id="edge2" class="edge">
<title>[root] local.processed_instances (expand)&#45;&gt;[root] var.host_aws_default_region (expand, reference)</title>
<path fill="none" stroke="#666666" d="M620.09,-579.14C556.26,-601.91 442.68,-642.43 372.06,-667.62"/>
<polygon fill="#666666" stroke="#666666" points="371.21,-664.21 362.96,-670.87 373.56,-670.8 371.21,-664.21"/>
</g>
<!-- [root] var.host_aws_secret_access_key (expand, reference) -->
<g id="node15" class="node">
<title>[root] var.host_aws_secret_access_key (expand, reference)</title>
<polygon fill="#eeeeee" stroke="black" points="625.59,-274.43 348.59,-274.43 348.59,-238.43 625.59,-238.43 625.59,-274.43"/>
<text text-anchor="middle" x="487.09" y="-252.93" font-family="Helvetica,sans-Serif" font-size="10.00">[root] var.host_aws_secret_access_key (expand, reference)</text>
</g>
<!-- [root] local.processed_instances (expand)&#45;&gt;[root] var.host_aws_secret_access_key (expand, reference) -->
<g id="edge3" class="edge">
<title>[root] local.processed_instances (expand)&#45;&gt;[root] var.host_aws_secret_access_key (expand, reference)</title>
<path fill="none" stroke="#666666" d="M656.86,-543.97C626.51,-492.57 540.02,-346.07 503.59,-284.37"/>
<polygon fill="#666666" stroke="#666666" points="506.66,-282.68 498.56,-275.85 500.63,-286.24 506.66,-282.68"/>
</g>
<!-- [root] var.instances (expand, reference) -->
<g id="node16" class="node">
<title>[root] var.instances (expand, reference)</title>
<polygon fill="#eeeeee" stroke="black" points="549.26,-917.53 362.26,-917.53 362.26,-881.53 549.26,-881.53 549.26,-917.53"/>
<text text-anchor="middle" x="455.76" y="-896.03" font-family="Helvetica,sans-Serif" font-size="10.00">[root] var.instances (expand, reference)</text>
</g>
<!-- [root] local.processed_instances (expand)&#45;&gt;[root] var.instances (expand, reference) -->
<g id="edge4" class="edge">
<title>[root] local.processed_instances (expand)&#45;&gt;[root] var.instances (expand, reference)</title>
<path fill="none" stroke="#666666" d="M656.22,-580.32C621.23,-636.03 515.15,-804.96 473.15,-871.84"/>
<polygon fill="#666666" stroke="#666666" points="470.37,-869.69 468.01,-880.02 476.29,-873.42 470.37,-869.69"/>
</g>
<!-- [root] module.docker_instances (expand) -->
<g id="node10" class="node">
<title>[root] module.docker_instances (expand)</title>
<polygon fill="#eeeeee" stroke="black" points="1437.58,-533.02 1244.58,-533.02 1244.58,-497.02 1437.58,-497.02 1437.58,-533.02"/>
<text text-anchor="middle" x="1341.08" y="-511.52" font-family="Helvetica,sans-Serif" font-size="10.00">[root] module.docker_instances (expand)</text>
</g>
<!-- [root] module.docker_instances (expand)&#45;&gt;[root] local.processed_instances (expand) -->
<g id="edge6" class="edge">
<title>[root] module.docker_instances (expand)&#45;&gt;[root] local.processed_instances (expand)</title>
<path fill="none" stroke="#666666" d="M1244.23,-521.81C1123.62,-530.25 917.63,-544.68 787.27,-553.8"/>
<polygon fill="#666666" stroke="#666666" points="787.31,-550.29 777.58,-554.48 787.8,-557.27 787.31,-550.29"/>
</g>
<!-- [root] module.docker_instances (close) -->
<g id="node11" class="node">
<title>[root] module.docker_instances (close)</title>
<polygon fill="#eeeeee" stroke="black" points="2545.79,-565.35 2361.04,-565.35 2361.04,-529.35 2545.79,-529.35 2545.79,-565.35"/>
<text text-anchor="middle" x="2453.42" y="-543.85" font-family="Helvetica,sans-Serif" font-size="10.00">[root] module.docker_instances (close)</text>
</g>
<!-- [root] module.docker_instances (close)&#45;&gt;[root] module.docker_instances.docker_container.instance (expand) -->
<g id="edge5" class="edge">
<title>[root] module.docker_instances (close)&#45;&gt;[root] module.docker_instances.docker_container.instance (expand)</title>
<path fill="none" stroke="#666666" d="M2360.65,-535.94C2313.67,-530.16 2255.26,-522.97 2201.22,-516.33"/>
<polygon fill="#666666" stroke="#666666" points="2201.97,-512.89 2191.62,-515.15 2201.12,-519.84 2201.97,-512.89"/>
</g>
<!-- [root] root -->
<g id="node12" class="node">
<title>[root] root</title>
<polygon fill="#eeeeee" stroke="black" points="2720.41,-530.68 2662.41,-530.68 2662.41,-494.68 2720.41,-494.68 2720.41,-530.68"/>
<text text-anchor="middle" x="2691.41" y="-509.18" font-family="Helvetica,sans-Serif" font-size="10.00">[root] root</text>
</g>
<!-- [root] root&#45;&gt;[root] module.docker_instances (close) -->
<g id="edge39" class="edge">
<title>[root] root&#45;&gt;[root] module.docker_instances (close)</title>
<path fill="none" stroke="#666666" d="M2662.23,-516.93C2635.9,-520.77 2595.56,-526.64 2557.33,-532.21"/>
<polygon fill="#666666" stroke="#666666" points="2556.98,-528.73 2547.59,-533.63 2557.99,-535.66 2556.98,-528.73"/>
</g>
<!-- [root] provider[&quot;registry.opentofu.org/kreuzwerker/docker&quot;] (close) -->
<g id="node35" class="node">
<title>[root] provider[&quot;registry.opentofu.org/kreuzwerker/docker&quot;] (close)</title>
<polygon fill="#eeeeee" stroke="black" points="2605.96,-432.56 2307.21,-432.56 2307.21,-396.56 2605.96,-396.56 2605.96,-432.56"/>
<text text-anchor="middle" x="2456.58" y="-411.06" font-family="Helvetica,sans-Serif" font-size="10.00">[root] provider[&quot;registry.opentofu.org/kreuzwerker/docker&quot;] (close)</text>
</g>
<!-- [root] root&#45;&gt;[root] provider[&quot;registry.opentofu.org/kreuzwerker/docker&quot;] (close) -->
<g id="edge40" class="edge">
<title>[root] root&#45;&gt;[root] provider[&quot;registry.opentofu.org/kreuzwerker/docker&quot;] (close)</title>
<path fill="none" stroke="#666666" d="M2662.14,-500.45C2624.42,-484.69 2558.1,-456.98 2511,-437.3"/>
<polygon fill="#666666" stroke="#666666" points="2512.63,-434.19 2502.05,-433.56 2509.93,-440.65 2512.63,-434.19"/>
</g>
<!-- [root] var.host_aws_access_key_id (expand, reference)&#45;&gt;[root] var.host_aws_access_key_id -->
<g id="edge41" class="edge">
<title>[root] var.host_aws_access_key_id (expand, reference)&#45;&gt;[root] var.host_aws_access_key_id</title>
<path fill="none" stroke="#666666" d="M288.05,-417.87C252.47,-397.01 194.21,-362.84 154.89,-339.79"/>
<polygon fill="#666666" stroke="#666666" points="156.78,-336.84 146.39,-334.8 153.24,-342.88 156.78,-336.84"/>
</g>
<!-- [root] var.host_aws_default_region (expand, reference)&#45;&gt;[root] var.host_aws_default_region -->
<g id="edge42" class="edge">
<title>[root] var.host_aws_default_region (expand, reference)&#45;&gt;[root] var.host_aws_default_region</title>
<path fill="none" stroke="#666666" d="M272.31,-708.22C233.58,-727.23 172.97,-756.97 130.8,-777.67"/>
<polygon fill="#666666" stroke="#666666" points="129.29,-774.51 121.86,-782.06 132.38,-780.79 129.29,-774.51"/>
</g>
<!-- [root] var.host_aws_secret_access_key (expand, reference)&#45;&gt;[root] var.host_aws_secret_access_key -->
<g id="edge43" class="edge">
<title>[root] var.host_aws_secret_access_key (expand, reference)&#45;&gt;[root] var.host_aws_secret_access_key</title>
<path fill="none" stroke="#666666" d="M482.79,-238.12C473.13,-197.03 449.66,-97.2 437.94,-47.35"/>
<polygon fill="#666666" stroke="#666666" points="441.4,-46.78 435.7,-37.85 434.59,-48.38 441.4,-46.78"/>
</g>
<!-- [root] var.instances (expand, reference)&#45;&gt;[root] var.instances -->
<g id="edge44" class="edge">
<title>[root] var.instances (expand, reference)&#45;&gt;[root] var.instances</title>
<path fill="none" stroke="#666666" d="M447.7,-917.87C427.66,-963.48 375.46,-1082.29 351.22,-1137.45"/>
<polygon fill="#666666" stroke="#666666" points="348.06,-1135.96 347.24,-1146.52 354.46,-1138.77 348.06,-1135.96"/>
</g>
<!-- [root] module.docker_instances.var.network_name (expand, input) -->
<g id="node32" class="node">
<title>[root] module.docker_instances.var.network_name (expand, input)</title>
<polygon fill="#eeeeee" stroke="black" points="1513.94,-952.63 1210.69,-952.63 1210.69,-916.63 1513.94,-916.63 1513.94,-952.63"/>
<text text-anchor="middle" x="1362.32" y="-931.13" font-family="Helvetica,sans-Serif" font-size="10.00">[root] module.docker_instances.var.network_name (expand, input)</text>
</g>
<!-- [root] module.docker_instances.var.network_name (expand, reference)&#45;&gt;[root] module.docker_instances.var.network_name (expand, input) -->
<g id="edge33" class="edge">
<title>[root] module.docker_instances.var.network_name (expand, reference)&#45;&gt;[root] module.docker_instances.var.network_name (expand, input)</title>
<path fill="none" stroke="#666666" d="M1609.02,-1126.66C1560.71,-1089.05 1450.19,-1003.02 1394.97,-960.04"/>
<polygon fill="#666666" stroke="#666666" points="1397.2,-957.34 1387.16,-953.96 1392.9,-962.86 1397.2,-957.34"/>
</g>
<!-- [root] module.docker_instances.var.acces_to_docker (expand, input) -->
<g id="node26" class="node">
<title>[root] module.docker_instances.var.acces_to_docker (expand, input)</title>
<polygon fill="#eeeeee" stroke="black" points="1703.59,-738.24 1389.84,-738.24 1389.84,-702.24 1703.59,-702.24 1703.59,-738.24"/>
<text text-anchor="middle" x="1546.71" y="-716.74" font-family="Helvetica,sans-Serif" font-size="10.00">[root] module.docker_instances.var.acces_to_docker (expand, input)</text>
</g>
<!-- [root] module.docker_instances.var.acces_to_docker (expand, reference)&#45;&gt;[root] module.docker_instances.var.acces_to_docker (expand, input) -->
<g id="edge21" class="edge">
<title>[root] module.docker_instances.var.acces_to_docker (expand, reference)&#45;&gt;[root] module.docker_instances.var.acces_to_docker (expand, input)</title>
<path fill="none" stroke="#666666" d="M1701.15,-715.69C1701.08,-715.69 1701,-715.69 1700.92,-715.69"/>
<polygon fill="#666666" stroke="#666666" points="1712.1,-711.86 1702.21,-715.65 1712.31,-718.85 1712.1,-711.86"/>
</g>
<!-- [root] module.docker_instances.var.command (expand, input) -->
<g id="node27" class="node">
<title>[root] module.docker_instances.var.command (expand, input)</title>
<polygon fill="#eeeeee" stroke="black" points="1551.97,-689.99 1269.72,-689.99 1269.72,-653.99 1551.97,-653.99 1551.97,-689.99"/>
<text text-anchor="middle" x="1410.85" y="-668.49" font-family="Helvetica,sans-Serif" font-size="10.00">[root] module.docker_instances.var.command (expand, input)</text>
</g>
<!-- [root] module.docker_instances.var.command (expand, reference)&#45;&gt;[root] module.docker_instances.var.command (expand, input) -->
<g id="edge23" class="edge">
<title>[root] module.docker_instances.var.command (expand, reference)&#45;&gt;[root] module.docker_instances.var.command (expand, input)</title>
<path fill="none" stroke="#666666" d="M1593.88,-647.9C1583.49,-649.27 1572.97,-650.65 1562.52,-652.03"/>
<polygon fill="#666666" stroke="#666666" points="1562.16,-648.55 1552.7,-653.32 1563.07,-655.49 1562.16,-648.55"/>
</g>
<!-- [root] module.docker_instances.var.container_name (expand, input) -->
<g id="node28" class="node">
<title>[root] module.docker_instances.var.container_name (expand, input)</title>
<polygon fill="#eeeeee" stroke="black" points="1677.1,-329.13 1368.6,-329.13 1368.6,-293.13 1677.1,-293.13 1677.1,-329.13"/>
<text text-anchor="middle" x="1522.85" y="-307.63" font-family="Helvetica,sans-Serif" font-size="10.00">[root] module.docker_instances.var.container_name (expand, input)</text>
</g>
<!-- [root] module.docker_instances.var.container_name (expand, reference)&#45;&gt;[root] module.docker_instances.var.container_name (expand, input) -->
<g id="edge25" class="edge">
<title>[root] module.docker_instances.var.container_name (expand, reference)&#45;&gt;[root] module.docker_instances.var.container_name (expand, input)</title>
<path fill="none" stroke="#666666" d="M1691.75,-296.57C1690.71,-296.66 1689.67,-296.75 1688.63,-296.84"/>
<polygon fill="#666666" stroke="#666666" points="1688.65,-293.33 1678.99,-297.67 1689.25,-300.3 1688.65,-293.33"/>
</g>
<!-- [root] module.docker_instances.var.env_vars (expand, input) -->
<g id="node29" class="node">
<title>[root] module.docker_instances.var.env_vars (expand, input)</title>
<polygon fill="#eeeeee" stroke="black" points="1496.98,-287.8 1217.73,-287.8 1217.73,-251.8 1496.98,-251.8 1496.98,-287.8"/>
<text text-anchor="middle" x="1357.35" y="-266.3" font-family="Helvetica,sans-Serif" font-size="10.00">[root] module.docker_instances.var.env_vars (expand, input)</text>
</g>
<!-- [root] module.docker_instances.var.env_vars (expand, reference)&#45;&gt;[root] module.docker_instances.var.env_vars (expand, input) -->
<g id="edge27" class="edge">
<title>[root] module.docker_instances.var.env_vars (expand, reference)&#45;&gt;[root] module.docker_instances.var.env_vars (expand, input)</title>
<path fill="none" stroke="#666666" d="M1553.58,-291.42C1538.66,-289.78 1523.51,-288.11 1508.58,-286.46"/>
<polygon fill="#666666" stroke="#666666" points="1509.04,-282.99 1498.72,-285.37 1508.27,-289.95 1509.04,-282.99"/>
</g>
<!-- [root] module.docker_instances.var.has_volume (expand, input) -->
<g id="node30" class="node">
<title>[root] module.docker_instances.var.has_volume (expand, input)</title>
<polygon fill="#eeeeee" stroke="black" points="1848.53,-455.19 1556.53,-455.19 1556.53,-419.19 1848.53,-419.19 1848.53,-455.19"/>
<text text-anchor="middle" x="1702.53" y="-433.69" font-family="Helvetica,sans-Serif" font-size="10.00">[root] module.docker_instances.var.has_volume (expand, input)</text>
</g>
<!-- [root] module.docker_instances.var.has_volume (expand, reference)&#45;&gt;[root] module.docker_instances.var.has_volume (expand, input) -->
<g id="edge29" class="edge">
<title>[root] module.docker_instances.var.has_volume (expand, reference)&#45;&gt;[root] module.docker_instances.var.has_volume (expand, input)</title>
<path fill="none" stroke="#666666" d="M1982.33,-359.34C1924.58,-375.41 1840.82,-398.71 1780.01,-415.63"/>
<polygon fill="#666666" stroke="#666666" points="1779.09,-412.26 1770.39,-418.31 1780.96,-419 1779.09,-412.26"/>
</g>
<!-- [root] module.docker_instances.var.ports (expand, input) -->
<g id="node33" class="node">
<title>[root] module.docker_instances.var.ports (expand, input)</title>
<polygon fill="#eeeeee" stroke="black" points="1752.51,-184.7 1491.26,-184.7 1491.26,-148.7 1752.51,-148.7 1752.51,-184.7"/>
<text text-anchor="middle" x="1621.88" y="-163.2" font-family="Helvetica,sans-Serif" font-size="10.00">[root] module.docker_instances.var.ports (expand, input)</text>
</g>
<!-- [root] module.docker_instances.var.ports (expand, reference)&#45;&gt;[root] module.docker_instances.var.ports (expand, input) -->
<g id="edge35" class="edge">
<title>[root] module.docker_instances.var.ports (expand, reference)&#45;&gt;[root] module.docker_instances.var.ports (expand, input)</title>
<path fill="none" stroke="#666666" d="M1846.65,-152.21C1819.51,-153.96 1791.07,-155.79 1763.89,-157.54"/>
<polygon fill="#666666" stroke="#666666" points="1764.01,-154.03 1754.25,-158.16 1764.46,-161.01 1764.01,-154.03"/>
</g>
<!-- [root] module.docker_instances.var.volume_name (expand, input) -->
<g id="node34" class="node">
<title>[root] module.docker_instances.var.volume_name (expand, input)</title>
<polygon fill="#eeeeee" stroke="black" points="1627.71,-148.97 1327.46,-148.97 1327.46,-112.97 1627.71,-112.97 1627.71,-148.97"/>
<text text-anchor="middle" x="1477.59" y="-127.47" font-family="Helvetica,sans-Serif" font-size="10.00">[root] module.docker_instances.var.volume_name (expand, input)</text>
</g>
<!-- [root] module.docker_instances.var.volume_name (expand, reference)&#45;&gt;[root] module.docker_instances.var.volume_name (expand, input) -->
<g id="edge37" class="edge">
<title>[root] module.docker_instances.var.volume_name (expand, reference)&#45;&gt;[root] module.docker_instances.var.volume_name (expand, input)</title>
<path fill="none" stroke="#666666" d="M1676.01,-125.65C1663.79,-125.98 1651.45,-126.31 1639.23,-126.63"/>
<polygon fill="#666666" stroke="#666666" points="1639.46,-123.13 1629.55,-126.89 1639.64,-130.12 1639.46,-123.13"/>
</g>
<!-- [root] module.docker_instances.var.image (expand, input) -->
<g id="node31" class="node">
<title>[root] module.docker_instances.var.image (expand, input)</title>
<polygon fill="#eeeeee" stroke="black" points="1723.76,-911.69 1458.01,-911.69 1458.01,-875.69 1723.76,-875.69 1723.76,-911.69"/>
<text text-anchor="middle" x="1590.88" y="-890.19" font-family="Helvetica,sans-Serif" font-size="10.00">[root] module.docker_instances.var.image (expand, input)</text>
</g>
<!-- [root] module.docker_instances.var.image (expand, reference)&#45;&gt;[root] module.docker_instances.var.image (expand, input) -->
<g id="edge31" class="edge">
<title>[root] module.docker_instances.var.image (expand, reference)&#45;&gt;[root] module.docker_instances.var.image (expand, input)</title>
<path fill="none" stroke="#666666" d="M1895.98,-1038.68C1833.08,-1008.78 1708.91,-949.78 1639.95,-917.01"/>
<polygon fill="#666666" stroke="#666666" points="1641.68,-913.96 1631.15,-912.83 1638.68,-920.28 1641.68,-913.96"/>
</g>
<!-- [root] module.docker_instances.var.acces_to_docker (expand, input)&#45;&gt;[root] module.docker_instances (expand) -->
<g id="edge20" class="edge">
<title>[root] module.docker_instances.var.acces_to_docker (expand, input)&#45;&gt;[root] module.docker_instances (expand)</title>
<path fill="none" stroke="#666666" d="M1528.47,-702.03C1491.97,-665.61 1409.88,-583.68 1367.5,-541.39"/>
<polygon fill="#666666" stroke="#666666" points="1370.2,-539.14 1360.65,-534.56 1365.26,-544.1 1370.2,-539.14"/>
</g>
<!-- [root] module.docker_instances.var.command (expand, input)&#45;&gt;[root] module.docker_instances (expand) -->
<g id="edge22" class="edge">
<title>[root] module.docker_instances.var.command (expand, input)&#45;&gt;[root] module.docker_instances (expand)</title>
<path fill="none" stroke="#666666" d="M1402.71,-653.67C1390.68,-626.62 1368.06,-575.72 1353.82,-543.69"/>
<polygon fill="#666666" stroke="#666666" points="1357.04,-542.32 1349.78,-534.6 1350.64,-545.16 1357.04,-542.32"/>
</g>
<!-- [root] module.docker_instances.var.container_name (expand, input)&#45;&gt;[root] module.docker_instances (expand) -->
<g id="edge24" class="edge">
<title>[root] module.docker_instances.var.container_name (expand, input)&#45;&gt;[root] module.docker_instances (expand)</title>
<path fill="none" stroke="#666666" d="M1506.39,-329.58C1474.09,-365.83 1402.24,-446.42 1364.8,-488.41"/>
<polygon fill="#666666" stroke="#666666" points="1362.41,-485.84 1358.37,-495.63 1367.63,-490.49 1362.41,-485.84"/>
</g>
<!-- [root] module.docker_instances.var.env_vars (expand, input)&#45;&gt;[root] module.docker_instances (expand) -->
<g id="edge26" class="edge">
<title>[root] module.docker_instances.var.env_vars (expand, input)&#45;&gt;[root] module.docker_instances (expand)</title>
<path fill="none" stroke="#666666" d="M1356.13,-288.23C1353.33,-330.41 1346.44,-434.24 1343.04,-485.47"/>
<polygon fill="#666666" stroke="#666666" points="1339.56,-484.99 1342.39,-495.2 1346.55,-485.46 1339.56,-484.99"/>
</g>
<!-- [root] module.docker_instances.var.has_volume (expand, input)&#45;&gt;[root] module.docker_instances (expand) -->
<g id="edge28" class="edge">
<title>[root] module.docker_instances.var.has_volume (expand, input)&#45;&gt;[root] module.docker_instances (expand)</title>
<path fill="none" stroke="#666666" d="M1616.87,-455.63C1563.05,-467.22 1493.5,-482.2 1437.71,-494.21"/>
<polygon fill="#666666" stroke="#666666" points="1437.27,-490.73 1428.23,-496.26 1438.74,-497.57 1437.27,-490.73"/>
</g>
<!-- [root] module.docker_instances.var.image (expand, input)&#45;&gt;[root] module.docker_instances (expand) -->
<g id="edge30" class="edge">
<title>[root] module.docker_instances.var.image (expand, input)&#45;&gt;[root] module.docker_instances (expand)</title>
<path fill="none" stroke="#666666" d="M1578.83,-875.43C1538.44,-814.19 1407.62,-615.89 1359.26,-542.59"/>
<polygon fill="#666666" stroke="#666666" points="1362.26,-540.79 1353.84,-534.37 1356.42,-544.64 1362.26,-540.79"/>
</g>
<!-- [root] module.docker_instances.var.network_name (expand, input)&#45;&gt;[root] module.docker_instances (expand) -->
<g id="edge32" class="edge">
<title>[root] module.docker_instances.var.network_name (expand, input)&#45;&gt;[root] module.docker_instances (expand)</title>
<path fill="none" stroke="#666666" d="M1361.39,-916.33C1358.06,-850.61 1346.7,-626.14 1342.58,-544.78"/>
<polygon fill="#666666" stroke="#666666" points="1346.08,-544.74 1342.08,-534.93 1339.09,-545.1 1346.08,-544.74"/>
</g>
<!-- [root] module.docker_instances.var.ports (expand, input)&#45;&gt;[root] module.docker_instances (expand) -->
<g id="edge34" class="edge">
<title>[root] module.docker_instances.var.ports (expand, input)&#45;&gt;[root] module.docker_instances (expand)</title>
<path fill="none" stroke="#666666" d="M1607.18,-184.93C1560.94,-242.29 1418.3,-419.24 1363.15,-487.64"/>
<polygon fill="#666666" stroke="#666666" points="1360.47,-485.39 1356.92,-495.37 1365.92,-489.78 1360.47,-485.39"/>
</g>
<!-- [root] module.docker_instances.var.volume_name (expand, input)&#45;&gt;[root] module.docker_instances (expand) -->
<g id="edge36" class="edge">
<title>[root] module.docker_instances.var.volume_name (expand, input)&#45;&gt;[root] module.docker_instances (expand)</title>
<path fill="none" stroke="#666666" d="M1471.09,-149.23C1449.22,-210.77 1378.1,-410.86 1351.36,-486.08"/>
<polygon fill="#666666" stroke="#666666" points="1348.17,-484.63 1348.11,-495.22 1354.76,-486.97 1348.17,-484.63"/>
</g>
<!-- [root] provider[&quot;registry.opentofu.org/kreuzwerker/docker&quot;] (close)&#45;&gt;[root] module.docker_instances.docker_container.instance (expand) -->
<g id="edge38" class="edge">
<title>[root] provider[&quot;registry.opentofu.org/kreuzwerker/docker&quot;] (close)&#45;&gt;[root] module.docker_instances.docker_container.instance (expand)</title>
<path fill="none" stroke="#666666" d="M2362.59,-433.05C2297.93,-445.77 2211.98,-462.68 2145.07,-475.85"/>
<polygon fill="#666666" stroke="#666666" points="2144.7,-472.35 2135.57,-477.72 2146.06,-479.22 2144.7,-472.35"/>
</g>
</g>
</svg>
